<svg width="16.000000" height="16.000000" viewBox="0 0 16 16" fill="none" xmlns="http://www.w3.org/2000/svg" xmlns:xlink="http://www.w3.org/1999/xlink">
	<desc>
			Created with Pixso.
	</desc>
	<defs/>
	<path id="path-1" d="M15.27 -0.75C15.57 -0.46 15.57 0.02 15.27 0.31L0.78 14.81C0.48 15.1 0.01 15.1 -0.28 14.81C-0.58 14.52 -0.58 14.04 -0.28 13.75L6.43 7.03L-0.28 0.31C-0.58 0.02 -0.58 -0.46 -0.28 -0.75C0.01 -1.04 0.48 -1.04 0.78 -0.75L7.5 5.97L14.21 -0.75C14.51 -1.04 14.98 -1.04 15.27 -0.75ZM15.27 13.75C15.57 14.04 15.57 14.52 15.27 14.81C14.98 15.1 14.51 15.1 14.21 14.81L8.2 8.8L9.26 7.74L15.27 13.75Z" fill="#FFFFFF" fill-opacity="1.000000" fill-rule="nonzero"/>
	<path id="path-1" d="M15.27 0.31L0.78 14.81C0.48 15.1 0.01 15.1 -0.28 14.81C-0.58 14.52 -0.58 14.04 -0.28 13.75L6.43 7.03L-0.28 0.31C-0.58 0.02 -0.58 -0.46 -0.28 -0.75C0.01 -1.04 0.48 -1.04 0.78 -0.75L7.5 5.97L14.21 -0.75C14.51 -1.04 14.98 -1.04 15.27 -0.75C15.57 -0.46 15.57 0.02 15.27 0.31ZM15.27 14.81C14.98 15.1 14.51 15.1 14.21 14.81L8.2 8.8L9.26 7.74L15.27 13.75C15.57 14.04 15.57 14.52 15.27 14.81Z" stroke="#000000" stroke-opacity="0" stroke-width="1.000000"/>
</svg>
