<?xml version="1.0" encoding="UTF-8"?>
<svg width="76px" height="76px" viewBox="0 0 76 76" version="1.1" xmlns="http://www.w3.org/2000/svg" xmlns:xlink="http://www.w3.org/1999/xlink">
    <title>拍照</title>
    <g id="页面-1" stroke="none" stroke-width="1" fill="none" fill-rule="evenodd">
        <g id="拍照（手机）" transform="translate(-142.000000, -620.000000)" fill="#FFFFFF">
            <g id="拍照" transform="translate(142.000000, 620.000000)">
                <path d="M38,0 C58.9868205,0 76,17.0131795 76,38 C76,58.9868205 58.9868205,76 38,76 C17.0131795,76 0,58.9868205 0,38 C0,17.0131795 17.0131795,0 38,0 Z M38,1 C17.5654643,1 1,17.5654643 1,38 C1,58.4345357 17.5654643,75 38,75 C58.4345357,75 75,58.4345357 75,38 C75,17.5654643 58.4345357,1 38,1 Z M38,11 C52.9116882,11 65,23.0883118 65,38 C65,52.9116882 52.9116882,65 38,65 C23.0883118,65 11,52.9116882 11,38 C11,23.0883118 23.0883118,11 38,11 Z" id="take_photo_normal"></path>
            </g>
        </g>
    </g>
</svg>