<svg xmlns="http://www.w3.org/2000/svg" width="96" height="96" version="1.1" viewBox="0 0 96 96">
  <g fill="#fff" fill-rule="evenodd" stroke="none" stroke-width="1">
    <path fill="#000" fill-rule="nonzero" d="M19.7157288,76.2842712 C35.3367004,91.9052429 60.6632996,91.9052429 76.2842712,76.2842712 C91.9052429,60.6632996 91.9052429,35.3367004 76.2842712,19.7157288 C60.6632996,4.09475708 35.3367004,4.09475708 19.7157288,19.7157288 C4.09475708,35.3367004 4.09475708,60.6632996 19.7157288,76.2842712 Z" opacity=".2"/>
    <path d="M38.1005051,62.1421356 C36.9289322,63.3137085 35.0294373,63.3137085 33.8578644,62.1421356 C32.6862915,60.9705627 32.6862915,59.0710678 33.8578644,57.8994949 L43.7580664,47.9992929 L33.8578644,38.1005051 C32.6862915,36.9289322 32.6862915,35.0294373 33.8578644,33.8578644 C35.0294373,32.6862915 36.9289322,32.6862915 38.1005051,33.8578644 L48.0007071,43.7566522 L57.8994949,33.8578644 C59.0710678,32.6862915 60.9705627,32.6862915 62.1421356,33.8578644 C63.3137085,35.0294373 63.3137085,36.9289322 62.1421356,38.1005051 L38.1005051,62.1421356 Z M54.363961,50.1213203 L62.1421356,57.8994949 C63.3137085,59.0710678 63.3137085,60.9705627 62.1421356,62.1421356 C60.9705627,63.3137085 59.0710678,63.3137085 57.8994949,62.1421356 L50.1213203,54.363961 L54.363961,50.1213203 Z"/>
  </g>
</svg>
