<?xml version="1.0" encoding="UTF-8"?>
<svg viewBox="0 0 24 24" version="1.1" xmlns="http://www.w3.org/2000/svg" xmlns:xlink="http://www.w3.org/1999/xlink">
    <!-- Generator: Sketch 63.1 (92452) - https://sketch.com -->
    <title>ic/camera/public/flash_always_on</title>
    <desc>Created with Sketch.</desc>
    <defs>
        <path d="M14.25,20.375 C14.6642136,20.375 15,20.7107864 15,21.125 C15,21.5392136 14.6642136,21.875 14.25,21.875 L9.75,21.875 C9.33578644,21.875 9,21.5392136 9,21.125 C9,20.7107864 9.33578644,20.375 9.75,20.375 L14.25,20.375 Z M15,17.625 C15.4142136,17.625 15.75,17.9607864 15.75,18.375 C15.75,18.7892136 15.4142136,19.125 15,19.125 L9,19.125 C8.58578644,19.125 8.25,18.7892136 8.25,18.375 C8.25,17.9607864 8.58578644,17.625 9,17.625 L15,17.625 Z M12,2.125 C16.1421356,2.125 19.5,5.48286438 19.5,9.625 C19.5,12.4597689 17.9128745,15.0128043 15.4398127,16.2912439 C15.3333496,16.3462796 15.2152477,16.3750004 15.0954007,16.3750004 L8.90459924,16.3750004 C8.78475226,16.3750004 8.66665037,16.3462796 8.56018734,16.2912439 C6.08712548,15.0128043 4.5,12.4597689 4.5,9.625 C4.5,5.48286438 7.85786438,2.125 12,2.125 Z M12,3.625 C8.6862915,3.625 6,6.3112915 6,9.625 C6,11.8330802 7.20287153,13.8267082 9.09265403,14.8750004 L14.9073452,14.8750004 C16.7971282,13.8267087 18,11.8330805 18,9.625 C18,6.3112915 15.3137085,3.625 12,3.625 Z" id="path-1"></path>
    </defs>
    <g id="ic/camera/public/flash_always_on" stroke="none" stroke-width="1" fill="none" fill-rule="evenodd">
        <mask id="mask-2" fill="white">
            <use xlink:href="#path-1"></use>
        </mask>
        <use id="flash_always_on" fill="#182431" xlink:href="#path-1"></use>
        <g id="ic/bg/white" mask="url(#mask-2)" fill="#FFFFFF" fill-rule="nonzero">
<!--            <rect id="Rectangle-13-Copy" x="0" y="0" width="24" height="24"></rect>-->
        </g>
    </g>
</svg>