<?xml version="1.0" encoding="UTF-8"?>
<svg width="24px" height="24px" viewBox="0 0 24 24" version="1.1" xmlns="http://www.w3.org/2000/svg" xmlns:xlink="http://www.w3.org/1999/xlink">
    <title>ic_camera_set_Quality</title>
    <g id="ic_camera_set_Quality" stroke="none" stroke-width="1" fill="none" fill-rule="evenodd">
        <path d="M12,2 C17.5228475,2 22,6.4771525 22,12 C22,17.5228475 17.5228475,22 12,22 C6.4771525,22 2,17.5228475 2,12 C2,6.4771525 6.4771525,2 12,2 Z M12,3.5 C7.30557963,3.5 3.5,7.30557963 3.5,12 C3.5,16.6944204 7.30557963,20.5 12,20.5 C16.6944204,20.5 20.5,16.6944204 20.5,12 C20.5,7.30557963 16.6944204,3.5 12,3.5 Z M13.2442177,17.892117 C13.2782975,18.1661483 13.0837782,18.4159217 12.8097469,18.4500014 C12.7203232,18.4611225 12.6305479,18.4704007 12.5404623,18.4778236 C12.4931717,18.4817203 12.446877,18.4789026 12.4025171,18.4701667 C12.3617809,18.4843069 12.3168258,18.4925695 12.2701106,18.4944816 C12.1803017,18.4981576 12.0902522,18.5 12,18.5 C11.7238576,18.5 11.5,18.2761424 11.5,18 C11.5,17.7238576 11.7238576,17.5 12,17.5 C12.0766146,17.5 12.1530291,17.4984365 12.2292143,17.4953182 C12.2688878,17.4936944 12.3076705,17.4967393 12.3450319,17.5039642 C12.3800207,17.4923764 12.4184406,17.484489 12.4583423,17.4812012 C12.5346312,17.4749151 12.6106389,17.4670598 12.6863333,17.4576461 C12.9603647,17.4235664 13.210138,17.6180856 13.2442177,17.892117 Z M9.71420109,17.0041173 C9.7836353,17.0358899 9.85374064,17.0662111 9.92447635,17.0950581 C9.9622221,17.1104514 9.99707076,17.1299313 10.0287197,17.1527786 C10.066323,17.1563934 10.1050685,17.1651566 10.1432456,17.178846 C10.2150617,17.2045975 10.2874431,17.2288512 10.3603508,17.2515883 C10.6239711,17.3338011 10.7710309,17.6141543 10.688818,17.8777746 C10.6066052,18.1413949 10.326252,18.2884547 10.0626317,18.2062418 C9.97635301,18.1793349 9.8906978,18.1506333 9.80571351,18.1201601 C9.76015341,18.1038233 9.71842652,18.0815552 9.68109065,18.0545372 C9.63677081,18.0503937 9.59126888,18.0391308 9.54685663,18.0210189 C9.46317171,17.986891 9.38023729,17.9510212 9.29810209,17.9134366 C9.04700049,17.798534 8.93658936,17.501829 9.05149193,17.2507274 C9.1663945,16.9996258 9.4630995,16.8892147 9.71420109,17.0041173 Z M15.5281506,16.8792555 C15.671041,17.1155539 15.5953188,17.4229472 15.3590204,17.5658376 C15.2817137,17.6125851 15.2034348,17.6577193 15.1242326,17.7012069 C15.0823264,17.7242164 15.0385645,17.7405902 14.994156,17.7506803 C14.9617365,17.7807165 14.9233683,17.8071593 14.8806427,17.8283137 C14.7997466,17.8683673 14.7180062,17.906733 14.6354703,17.9433821 C14.3830902,18.0554486 14.0876479,17.9417019 13.9755814,17.6893218 C13.8635149,17.4369417 13.9772616,17.1414994 14.2296417,17.0294329 C14.2994189,16.9984492 14.3685282,16.966012 14.4369286,16.9321453 C14.4733777,16.9140985 14.5109651,16.900907 14.5489563,16.8923227 C14.5761387,16.8666669 14.6079329,16.8438683 14.6429391,16.8246474 C14.7099385,16.78786 14.7761622,16.7496766 14.8415685,16.7101253 C15.0778669,16.5672349 15.3852602,16.6429571 15.5281506,16.8792555 Z M7.88577656,15.6501904 C7.93649729,15.7073134 7.98839782,15.7633833 8.04144139,15.818361 C8.06855547,15.8464637 8.0917219,15.8769223 8.11095295,15.9090507 C8.14220493,15.9272643 8.17301934,15.9504187 8.20146315,15.9775906 C8.25673478,16.0303906 8.31309397,16.0820407 8.37050156,16.1325042 C8.57790422,16.3148192 8.59824182,16.6307477 8.41592685,16.8381504 C8.23361188,17.045553 7.91768332,17.0658906 7.71028066,16.8835757 C7.64250202,16.8239956 7.57596274,16.763016 7.51070844,16.7006797 C7.47728127,16.6687473 7.4492472,16.6332907 7.42663226,16.5954478 C7.3894825,16.5738218 7.35388715,16.545964 7.32178925,16.5126958 C7.25916581,16.4477889 7.1978911,16.3815918 7.13800799,16.3141499 C6.95466065,16.1076593 6.97342196,15.7916332 7.17991255,15.6082859 C7.38640314,15.4249385 7.70242922,15.4436998 7.88577656,15.6501904 Z M17.2035114,15.0306538 C17.42963,15.1891625 17.4844387,15.5009644 17.3259301,15.727083 C17.2741116,15.8010041 17.2207616,15.8738417 17.1659184,15.9455475 C17.1366268,15.9838454 17.1028828,16.0167311 17.0659666,16.044034 C17.0492228,16.0843152 17.0250106,16.123561 16.9948033,16.1597954 C16.9370367,16.2290879 16.8778388,16.2971784 16.8172514,16.3640207 C16.6317968,16.5686209 16.315595,16.5841415 16.1109949,16.3986869 C15.9063947,16.2132324 15.8908741,15.8970306 16.0763287,15.6924304 C16.1276448,15.6358166 16.1777826,15.5781471 16.2267065,15.5194616 C16.2526297,15.4883661 16.2815289,15.4612147 16.3126427,15.4380763 C16.3272548,15.4038164 16.347217,15.3699258 16.3716102,15.3380324 C16.4180452,15.27732 16.4632134,15.215653 16.5070822,15.1530725 C16.6655908,14.9269539 16.9773928,14.8721452 17.2035114,15.0306538 Z M6.75468915,13.659643 C6.77772086,13.7325089 6.80226951,13.8048433 6.82831599,13.876607 C6.84223366,13.9149532 6.85116984,13.9538935 6.85545576,13.9927193 C6.87796029,14.0233288 6.89784027,14.0584384 6.91355749,14.096525 C6.94270515,14.1671568 6.97332518,14.2371528 7.00539475,14.3064721 C7.12134104,14.5570935 7.01216533,14.8542553 6.76154397,14.9702016 C6.5109226,15.0861479 6.2137608,14.9769722 6.0978145,14.7263508 C6.05987971,14.6443537 6.02365718,14.5615506 5.9891744,14.4779905 C5.97060894,14.4330019 5.95909076,14.386862 5.9541099,14.3407975 C5.92725723,14.3049156 5.90482785,14.2632751 5.88831496,14.2177786 C5.85749287,14.1328571 5.8284425,14.047258 5.80118694,13.961029 C5.71796149,13.6977266 5.86394267,13.4168103 6.12724504,13.3335849 C6.3905474,13.2503594 6.6714637,13.3963406 6.75468915,13.659643 Z M11.8311555,9.63855765 C11.8845678,9.45381412 12.1239233,9.45381412 12.1773356,9.63855765 L12.1773356,9.63855765 L12.4115498,10.4461508 C12.5735004,11.0037968 12.954527,11.4540121 13.4512326,11.6722889 L13.4512326,11.6722889 L13.8948115,11.8675892 C14.0464795,11.9346558 14.0464795,12.1693887 13.8948115,12.2361448 L13.8948115,12.2361448 L13.4560882,12.4292716 C12.956812,12.6491009 12.5740717,13.1024212 12.4141205,13.6647246 L12.4141205,13.6647246 L12.1776212,14.4934312 C12.1247802,14.6791063 11.8839965,14.6791063 11.8308699,14.4934312 L11.8308699,14.4934312 L11.5946562,13.6647246 C11.4344194,13.1024212 11.0516791,12.6491009 10.5524029,12.4292716 L10.5524029,12.4292716 L10.1139652,12.2361448 C9.96201159,12.1693887 9.96201159,11.9346558 10.1139652,11.8675892 L10.1139652,11.8675892 L10.5575442,11.6722889 C11.0539641,11.4540121 11.4352763,11.0037968 11.5969413,10.4461508 L11.5969413,10.4461508 L11.8311555,9.63855765 Z M17.987166,12.6406429 C18.2584107,12.6924208 18.4363237,12.9542822 18.3845459,13.2255269 C18.3675944,13.3143296 18.3488018,13.4026741 18.3281854,13.4905159 C18.3170777,13.5378436 18.2995858,13.5820086 18.2768351,13.6223134 C18.2778148,13.6670251 18.271785,13.7136589 18.2587828,13.7599846 C18.2343575,13.8470092 18.208123,13.9334525 18.1801007,14.0192677 C18.0943828,14.2817693 17.8120952,14.4250808 17.5495937,14.3393629 C17.2870921,14.2536451 17.1437806,13.9713575 17.2294985,13.7088559 C17.2531779,13.6363402 17.2753466,13.5632939 17.2959867,13.4897554 C17.3070418,13.4503674 17.3225172,13.413412 17.341725,13.3792755 C17.3410141,13.3414602 17.3453183,13.3017402 17.3546392,13.2620256 C17.3720654,13.1877767 17.3879511,13.1130971 17.4022821,13.0380228 C17.4540599,12.7667781 17.7159214,12.5888651 17.987166,12.6406429 Z M6.0893249,10.8478386 C6.3638536,10.8776481 6.56223772,11.1243629 6.53242823,11.3988916 C6.52419192,11.4747434 6.51751541,11.5508925 6.51240914,11.6273072 C6.50964862,11.6686179 6.50194537,11.7084204 6.48991493,11.7461762 C6.49861319,11.7834859 6.50261953,11.8235836 6.50162818,11.8647223 L6.50040726,11.9323072 L6.50049768,12.0748266 C6.50417277,12.3509446 6.28331421,12.5777616 6.0071963,12.5814367 C5.73107838,12.5851118 5.50426133,12.3642532 5.50058624,12.0881353 L5.5,12 C5.5,11.946805 5.50064006,11.8936796 5.50191841,11.8406315 C5.50309755,11.7916998 5.51126804,11.7445797 5.52545171,11.7002034 C5.51522359,11.6570042 5.51137545,11.6094018 5.51463436,11.5606327 C5.52066182,11.4704324 5.52854489,11.380522 5.53827187,11.290942 C5.56808136,11.0164133 5.8147962,10.8180291 6.0893249,10.8478386 Z M18.3346949,10.5374997 C18.3549259,10.6254581 18.3733305,10.7139131 18.3898916,10.8028202 C18.3984812,10.8489324 18.4004449,10.8947444 18.3964554,10.9392755 C18.4141717,10.9793392 18.4273338,11.0240921 18.4340973,11.0713387 C18.4468736,11.1605883 18.4578073,11.250215 18.4668852,11.3401772 C18.4946094,11.6149243 18.2943577,11.8601258 18.0196105,11.8878499 C17.7448634,11.915574 17.499662,11.7153224 17.4719379,11.4405752 C17.4642533,11.3644214 17.4549999,11.2885677 17.4441889,11.2130471 C17.4385915,11.1739464 17.4376797,11.1352557 17.4410275,11.097543 C17.4260993,11.0633864 17.4141987,11.0256541 17.4068019,10.985945 C17.3928004,10.9107791 17.377242,10.8360033 17.3601411,10.7616533 C17.2982428,10.4925377 17.4662256,10.2241979 17.7353412,10.1622996 C18.0044568,10.1004013 18.2727966,10.2683841 18.3346949,10.5374997 Z M7.07948164,8.52950665 C7.31744706,8.66960331 7.39678536,8.97608317 7.2566887,9.21404859 C7.21793611,9.27987297 7.18055963,9.34649883 7.14458652,9.41388448 C7.12532055,9.44997394 7.10226073,9.48273728 7.07616193,9.51194507 C7.06918306,9.5485848 7.05657966,9.58564584 7.03927711,9.62166403 C7.00622413,9.6904694 6.97460918,9.75996884 6.94445571,9.83012141 C6.83540885,10.0838208 6.54134489,10.2010849 6.28764548,10.092038 C6.03394606,9.98299117 5.916682,9.68892721 6.02572886,9.43522779 C6.06139853,9.35224167 6.09879466,9.27003341 6.13788905,9.18865182 C6.1586231,9.14549041 6.18474356,9.10666062 6.21505678,9.07258145 C6.22404741,9.02907478 6.23990466,8.98512312 6.26241896,8.94294882 C6.30494776,8.8632829 6.34913217,8.7845215 6.39493971,8.70671371 C6.53503637,8.4687483 6.84151623,8.38941 7.07948164,8.52950665 Z M17.1919464,8.08871691 C17.2463013,8.16076422 17.2991562,8.23393303 17.3504731,8.30817522 C17.3777982,8.34770755 17.3986457,8.38979225 17.4132455,8.43317124 C17.4469711,8.46271059 17.4770515,8.49802792 17.5023612,8.53817833 C17.5505233,8.61458072 17.5970916,8.69198266 17.6420322,8.7703351 C17.7794236,9.00987259 17.6966178,9.31543384 17.4570804,9.45282526 C17.2175429,9.59021667 16.9119816,9.50741091 16.7745902,9.26787341 C16.7365683,9.20158348 16.6971661,9.13609252 16.6564123,9.07144231 C16.6347913,9.03714356 16.6178538,9.00122485 16.6054299,8.96443519 C16.5773783,8.93990265 16.5509485,8.9101798 16.5278582,8.87677409 C16.4844159,8.81392435 16.4396686,8.75197924 16.3936487,8.69097998 C16.2273383,8.47053616 16.2712222,8.15700995 16.491666,7.9906996 C16.7121098,7.82438925 17.025636,7.86827309 17.1919464,8.08871691 Z M8.90669932,6.83357597 C9.06792272,7.05776701 9.01687737,7.37020716 8.79268632,7.53143056 C8.73063513,7.57605369 8.66951254,7.62196472 8.60935962,7.66913059 C8.57736733,7.69421574 8.54327297,7.71478344 8.50784521,7.73092673 C8.48569971,7.76174591 8.45851831,7.79154741 8.4272155,7.81831989 C8.36914086,7.86798962 8.31209788,7.9188602 8.25612602,7.97089547 C8.05388135,8.15891596 7.73750893,8.14738498 7.54948844,7.9451403 C7.36146795,7.74289563 7.37299893,7.42652321 7.57524361,7.23850272 C7.64132614,7.17706788 7.70867466,7.11700688 7.77724324,7.05836196 C7.8138427,7.02705939 7.85365918,7.00196494 7.89540947,6.98297851 C7.92165529,6.94634578 7.95423596,6.91206019 7.99232405,6.88219533 C8.06336454,6.82649252 8.13555405,6.77226879 8.20884472,6.71956298 C8.43303576,6.55833957 8.74547591,6.60938492 8.90669932,6.83357597 Z M15.1629289,6.32021206 C15.2418112,6.36422651 15.3197606,6.4098802 15.3967281,6.45713967 C15.4371741,6.4819743 15.4728436,6.51163617 15.5034501,6.5449271 C15.5459393,6.55884659 15.5882679,6.57919432 15.628121,6.60604938 C15.7029532,6.65647512 15.7767298,6.70845134 15.8494024,6.76194062 C16.0717986,6.92563103 16.119389,7.23861605 15.9556986,7.46101223 C15.7920082,7.68340841 15.4790232,7.73099884 15.256627,7.56730843 C15.1951026,7.52202458 15.1326475,7.47802444 15.0693031,7.43533977 C15.0357624,7.41273833 15.0058353,7.38678126 14.9796678,7.35821687 C14.9434915,7.34674707 14.9077149,7.33034097 14.8734749,7.30931694 C14.8083523,7.26933042 14.742404,7.23070559 14.6756717,7.19347058 C14.434528,7.05891823 14.3481186,6.75435641 14.482671,6.51321273 C14.6172234,6.27206905 14.9217852,6.18565971 15.1629289,6.32021206 Z M11.2751122,6.02232032 C11.3307234,6.29280507 11.156534,6.5571581 10.8860493,6.61276934 C10.8111296,6.6281727 10.7366212,6.64513018 10.6625606,6.66362677 C10.6233208,6.67342689 10.5840055,6.67829617 10.5452685,6.678627 C10.5136046,6.69746399 10.4772077,6.7132416 10.4383674,6.72471997 C10.3650999,6.74637253 10.2923412,6.76954911 10.2201299,6.79423142 C9.95883008,6.88354552 9.67460133,6.74412353 9.58528723,6.4828237 C9.49597313,6.22152387 9.63539512,5.93729512 9.89669495,5.84798102 C9.98214899,5.81877223 10.068252,5.79134494 10.1549569,5.76572127 C10.2009538,5.75212793 10.247352,5.74545819 10.2930345,5.74510466 C10.33094,5.72260008 10.374035,5.70497021 10.4202539,5.69342706 C10.507881,5.67154226 10.5960325,5.65147973 10.6846632,5.6332574 C10.9551479,5.57764616 11.219501,5.75183557 11.2751122,6.02232032 Z M12.5608596,5.52388924 C12.6509315,5.53159505 12.7406887,5.5411565 12.8300899,5.55256109 C12.8784068,5.55872471 12.9242287,5.57159138 12.9667407,5.59010793 C13.0111642,5.58452373 13.0585093,5.58565025 13.1062759,5.59384506 C13.1953889,5.60913328 13.2840703,5.62626745 13.372276,5.64523126 C13.6422494,5.70327428 13.8140529,5.9691841 13.7560098,6.23915746 C13.6979668,6.50913083 13.432057,6.68093432 13.1620836,6.6228913 C13.0875155,6.60685951 13.0125381,6.59237308 12.9371864,6.57944578 C12.8962276,6.57241888 12.857293,6.5605953 12.8208603,6.54465028 C12.7835038,6.54985404 12.7437802,6.54965464 12.703549,6.54452248 C12.6278783,6.53486945 12.551891,6.52677484 12.4756192,6.52024965 C12.2004818,6.49671117 11.9965207,6.25458657 12.0200592,5.97944924 C12.0435977,5.70431191 12.2857223,5.50035075 12.5608596,5.52388924 Z" id="path-1" fill="#182431" fill-rule="nonzero"></path>
    </g>
</svg>