<?xml version="1.0" encoding="UTF-8"?>
<svg width="24px" height="24px" viewBox="0 0 24 24" version="1.1" xmlns="http://www.w3.org/2000/svg" xmlns:xlink="http://www.w3.org/1999/xlink">
    <title>ic_camera_set_line</title>
    <defs>
        <path d="M15.75,3 C16.1642136,3 16.5,3.33578644 16.5,3.75 L16.5,7.5 L20.25,7.5 C20.6642136,7.5 21,7.83578644 21,8.25 C21,8.66421356 20.6642136,9 20.25,9 L16.5,9 L16.5,15 L20.25,15 C20.6642136,15 21,15.3357864 21,15.75 C21,16.1642136 20.6642136,16.5 20.25,16.5 L16.5,16.5 L16.5,20.25 C16.5,20.6642136 16.1642136,21 15.75,21 C15.3357864,21 15,20.6642136 15,20.25 L15,16.5 L9,16.5 L9,20.25 C9,20.6642136 8.66421356,21 8.25,21 C7.83578644,21 7.5,20.6642136 7.5,20.25 L7.5,16.5 L3.75,16.5 C3.33578644,16.5 3,16.1642136 3,15.75 C3,15.3357864 3.33578644,15 3.75,15 L7.5,15 L7.5,9 L3.75,9 C3.33578644,9 3,8.66421356 3,8.25 C3,7.83578644 3.33578644,7.5 3.75,7.5 L7.5,7.5 L7.5,3.75 C7.5,3.33578644 7.83578644,3 8.25,3 C8.66421356,3 9,3.33578644 9,3.75 L9,7.5 L15,7.5 L15,3.75 C15,3.33578644 15.3357864,3 15.75,3 Z M15,15 L15,9 L9,9 L9,15 L15,15 Z" id="path-1"></path>
    </defs>
    <g id="ic_camera_set_line" stroke="none" stroke-width="1" fill="none" fill-rule="evenodd">
        <mask id="mask-2" fill="white">
            <use xlink:href="#path-1"></use>
        </mask>
        <use id="path-1" fill="#182431" xlink:href="#path-1"></use>
    </g>
</svg>