<?xml version="1.0" encoding="UTF-8"?>
<svg width="24px" height="24px" viewBox="0 0 24 24" version="1.1" xmlns="http://www.w3.org/2000/svg"
     xmlns:xlink="http://www.w3.org/1999/xlink">
    <title>FLASH ALWAYS ON备份</title>
    <g id="FLASH-ALWAYS-ON备份" stroke="none" stroke-width="1" fill="none" fill-rule="evenodd">
        <path d="M12,1 C7.30360303,1 3.49642105,4.80557963 3.49642105,9.5 C3.49642105,12.3234334 4.8846212,14.9141205 7.16286746,16.4916926 C7.28838467,16.578607 7.43744301,16.6251737 7.59013567,16.6251737 L16.4098643,16.6251737 C16.562557,16.6251737 16.7116153,16.578607 16.8371325,16.4916926 C19.1153788,14.9141205 20.5035789,12.3234334 20.5035789,9.5 C20.5035789,4.80557963 16.696397,1 12,1 Z M12,2.5 C15.867621,2.5 19.0029474,5.63400675 19.0029474,9.5 L19.0019647,9.61810578 C18.9659683,11.7802024 17.9430714,13.7644877 16.2632806,15.0539394 L16.1690046,15.125 L7.83074526,15.125 L7.82899383,15.1235809 C6.06347711,13.8136027 4.99705263,11.7472422 4.99705263,9.5 C4.99705263,5.63400675 8.13237896,2.5 12,2.5 Z M8.24842105,18.25 L15.7515789,18.25 C16.1659669,18.25 16.5018947,18.5857864 16.5018947,19 C16.5018947,19.4142136 16.1659669,19.75 15.7515789,19.75 L8.24842105,19.75 C7.83403308,19.75 7.49810526,19.4142136 7.49810526,19 C7.49810526,18.5857864 7.83403308,18.25 8.24842105,18.25 Z M8.99873684,21.5 L15.0012632,21.5 C15.4156511,21.5 15.7515789,21.8357864 15.7515789,22.25 C15.7515789,22.6642136 15.4156511,23 15.0012632,23 L8.99873684,23 C8.58434887,23 8.24842105,22.6642136 8.24842105,22.25 C8.24842105,21.8357864 8.58434887,21.5 8.99873684,21.5 Z"
              id="形状备份-36" fill="#FFFFFF" fill-rule="nonzero"></path>
    </g>
</svg>