<?xml version="1.0" encoding="UTF-8"?>
<svg width="24px" height="24px" viewBox="0 0 24 24" version="1.1" xmlns="http://www.w3.org/2000/svg" xmlns:xlink="http://www.w3.org/1999/xlink">
    <title>ic_camera_video_on</title>
    <g id="ic_camera_video_on" stroke="none" stroke-width="1" fill="none" fill-rule="evenodd">
        <path d="M18.5416667,19.5 L14.4583333,19.5 C14.2052028,19.5 14,19.2947972 14,19.0416667 L14,4.95833333 C14,4.70520282 14.2052028,4.5 14.4583333,4.5 L18.5416667,4.5 C18.7947972,4.5 19,4.70520282 19,4.95833333 L19,19.0416667 C19,19.2947972 18.7947972,19.5 18.5416667,19.5 Z M9.54166667,19.5 L5.45833333,19.5 C5.20520282,19.5 5,19.2947972 5,19.0416667 L5,4.95833333 C5,4.70520282 5.20520282,4.5 5.45833333,4.5 L9.54166667,4.5 C9.79479718,4.5 10,4.70520282 10,4.95833333 L10,19.0416667 C10,19.2947972 9.79479718,19.5 9.54166667,19.5 Z" id="形状" fill="#FFFFFF"></path>
    </g>
</svg>