<?xml version="1.0" encoding="UTF-8"?>
<svg width="24px" height="24px" viewBox="0 0 24 24" version="1.1" xmlns="http://www.w3.org/2000/svg" xmlns:xlink="http://www.w3.org/1999/xlink">
    <title>ic_camera_set_Location</title>
    <g id="ic_camera_set_Location" stroke="none" stroke-width="1" fill="none" fill-rule="evenodd">
        <path d="M12,0.890443665 C17.1054507,0.890443665 21.25,4.95664638 21.25,9.97979602 C21.25,11.9360332 20.6574499,13.8475128 19.5576286,15.7794054 C18.8729064,16.982155 18.0501448,18.1145504 16.9608635,19.4075471 L16.694253,19.7210681 L16.4170134,20.0414657 C16.3227849,20.1494899 16.226719,20.2587783 16.1287501,20.3694494 C15.9102985,20.6162244 15.6650022,20.8755327 15.3927717,21.1475453 L15.1835472,21.3539395 C15.0406956,21.4931272 14.8911049,21.6355018 14.7347638,21.7810844 L14.3716004,22.1140683 L13.8518942,22.5749831 L13.576813,22.812735 C12.7041229,23.5609204 11.420977,23.5841619 10.509368,22.8615879 L10.4382537,22.8023123 L9.90321903,22.3340223 L9.61389638,22.0766955 L9.09562633,21.6056114 L8.724679,21.2567766 L8.35187559,20.8897232 L8.10085655,20.6260697 L7.86894106,20.3672896 L7.48697003,19.9322997 L7.24014438,19.6450348 L6.88170517,19.2180024 L6.42595171,18.6553632 C4.02623205,15.6274382 2.75,12.9090303 2.75,9.97979602 C2.75,4.99342455 6.70791088,0.971543045 11.7334486,0.891584596 L12,0.890443665 Z M12,2.39041996 L11.751346,2.39146593 C7.55083692,2.4583177 4.25,5.81250514 4.25,9.97979602 C4.25,12.896509 5.7991974,15.7221073 8.73645395,19.0830958 L8.98797346,19.3684114 L9.25122371,19.6609093 L9.42768459,19.8447124 L9.52863979,19.9460825 L9.69591626,20.1099012 L10.0872325,20.4795705 L10.4707886,20.8300276 L10.9994895,21.3008564 L11.4539143,21.6964471 C11.7903355,21.963019 12.2735456,21.9542667 12.6005016,21.6739567 L12.8630218,21.4470837 L13.3576298,21.0086194 L13.5897008,20.7970601 L14.0233349,20.3893676 L14.2248812,20.1932664 C14.4458895,19.9755659 14.6475494,19.7677085 14.8298072,19.5697967 L15.1324106,19.2314252 L15.5023714,18.8055459 L15.7402879,18.5260009 L15.9712367,18.2497939 C16.1228823,18.066738 16.2698895,17.8858152 16.4122716,17.7068412 L16.6223776,17.4398186 C18.723223,14.739479 19.75,12.4708886 19.75,9.97979602 C19.75,5.7915486 16.2833634,2.39041996 12,2.39041996 Z M12,7.75 C13.2426407,7.75 14.25,8.75735931 14.25,10 C14.25,11.2426407 13.2426407,12.25 12,12.25 C10.7573593,12.25 9.75,11.2426407 9.75,10 C9.75,8.75735931 10.7573593,7.75 12,7.75 Z" id="形状" fill="#182431" fill-rule="nonzero"></path>
    </g>
</svg>