<?xml version="1.0" encoding="UTF-8"?>
<svg width="24px" height="24px" viewBox="0 0 24 24" version="1.1" xmlns="http://www.w3.org/2000/svg" xmlns:xlink="http://www.w3.org/1999/xlink">
    <title>ic_camera_set_arrow</title>
    <defs>
        <path d="M10.2482689,5.78255501 L10.2803301,5.81281566 L15.2300776,10.7625631 C15.8992572,11.4317428 15.9131984,12.5080354 15.2719013,13.1941781 L15.2300776,13.2374369 L10.2803301,18.1871843 C10.1514571,18.3160574 9.98735263,18.3882262 9.81902041,18.403691 L9.7730301,18.4065028 L9.7269699,18.4065028 C9.54277571,18.4008792 9.36025866,18.3277731 9.21966991,18.1871843 C8.93723717,17.9047516 8.92715028,17.4531048 9.18940926,17.1585854 L9.21966991,17.1265242 L13.815864,12.5303301 C14.0982967,12.2478973 14.1083836,11.7962506 13.8461246,11.5017311 L13.815864,11.4696699 L9.21966991,6.87347584 C8.9267767,6.58058262 8.9267767,6.10570888 9.21966991,5.81281566 C9.36088629,5.67159929 9.54440617,5.59846938 9.72943689,5.59342594 L9.77570243,5.59358355 C9.94528507,5.59936249 10.1132808,5.66235298 10.2482689,5.78255501 Z" id="path-1"></path>
    </defs>
    <g id="ic_camera_set_arrow" stroke="none" stroke-width="1" fill="none" fill-rule="evenodd">
        <mask id="mask-2" fill="white">
            <use xlink:href="#path-1"></use>
        </mask>
        <use id="路径" fill-opacity="0.2" fill="#182431" fill-rule="nonzero" xlink:href="#path-1"></use>
    </g>
</svg>