<?xml version="1.0" encoding="UTF-8"?>
<svg width="24px" height="24px" viewBox="0 0 24 24" version="1.1" xmlns="http://www.w3.org/2000/svg" xmlns:xlink="http://www.w3.org/1999/xlink">
    <title>ic_camera_set__Mirror</title>
    <g id="ic_camera_set__Mirror" stroke="none" stroke-width="1" fill="none" fill-rule="evenodd">
        <path d="M12,4 C12.4142136,4 12.75,4.33578644 12.75,4.75 L12.75,19.25 C12.75,19.6642136 12.4142136,20 12,20 C11.5857864,20 11.25,19.6642136 11.25,19.25 L11.25,4.75 C11.25,4.33578644 11.5857864,4 12,4 Z" id="path-1-path" fill="#182431" fill-rule="nonzero"></path>
        <path d="M6.75,6 L3.25,6 C2.00735933,6 1,6.96706495 1,8.16 L1,15.84 C1,17.032935 2.00735934,18 3.25,18 L6.75,18 C7.99264066,18 9,17.032935 9,15.84 L9,8.16 C9,6.96706495 7.99264067,6 6.75,6 Z M6.75,7.44 C7.16421355,7.44 7.5,7.76235499 7.5,8.16 L7.5,15.84 C7.5,16.237645 7.16421354,16.56 6.75,16.56 L3.25,16.56 C2.83578646,16.56 2.5,16.237645 2.5,15.84 L2.5,8.16 C2.5,7.76235499 2.83578645,7.44 3.25,7.44 L6.75,7.44 Z" id="path-1-path备份" fill="#182431" fill-rule="nonzero"></path>
        <path d="M20.75,6 L17.25,6 C16.0073593,6 15,6.96706495 15,8.16 L15,15.84 C15,17.032935 16.0073593,18 17.25,18 L20.75,18 C21.9926407,18 23,17.032935 23,15.84 L23,8.16 C23,6.96706495 21.9926407,6 20.75,6 Z M20.75,7.44 C21.1642135,7.44 21.5,7.76235499 21.5,8.16 L21.5,15.84 C21.5,16.237645 21.1642135,16.56 20.75,16.56 L17.25,16.56 C16.8357865,16.56 16.5,16.237645 16.5,15.84 L16.5,8.16 C16.5,7.76235499 16.8357865,7.44 17.25,7.44 L20.75,7.44 Z" id="path-1-path备份-2" fill="#182431" fill-rule="nonzero"></path>
    </g>
</svg>