<?xml version="1.0" encoding="UTF-8"?>
<svg width="24px" height="24px" viewBox="0 0 24 24" version="1.1" xmlns="http://www.w3.org/2000/svg" xmlns:xlink="http://www.w3.org/1999/xlink">
    <title>ic_camera_set_Format</title>
    <g id="ic_camera_set_Format" stroke="none" stroke-width="1" fill="none" fill-rule="evenodd">
        <path d="M6.91631345,22 C5.4822629,22 4.78434081,21.865225 4.05892659,21.4772693 C3.3985956,21.1241204 2.87587962,20.6014044 2.52273075,19.9410734 C2.46359069,19.8304911 2.41241111,19.7256435 2.36620332,19.6186495 L2.1698636,19.1640257 L2.20306886,19.1293767 C2.08055634,18.6696924 2.01201586,18.0722959 2.00144322,17.1361052 L2,7.1277704 C2,5.47961992 2.15862462,4.80249093 2.457955,4.19465027 L2.53426541,4.04630859 C2.86627892,3.42549731 3.34610464,2.93191931 3.9541436,2.58517358 L4.04630859,2.53426541 C4.66385245,2.20399934 5.27665804,2.01999365 6.85551601,2.0015395 L16.8722296,2 C18.5203801,2 19.1975091,2.15862462 19.8053497,2.457955 L19.9536914,2.53426541 C20.5745027,2.86627892 21.0680807,3.34610464 21.4148264,3.9541436 L21.4657346,4.04630859 C21.8143488,4.69816044 22,5.34473292 22,7.1277704 L22,13.642 L20.5,12.141 L20.5,7.1277704 L20.4954923,6.64429363 C20.4740999,5.60811465 20.374088,5.18577614 20.1430148,4.75370688 C19.9342003,4.36325774 19.6367423,4.06579969 19.2462931,3.8569852 C18.7771894,3.60610577 18.319556,3.50971811 17.0753381,3.50070655 L6.82305804,3.501658 L6.39267325,3.51171091 C5.53615135,3.54387413 5.14900152,3.64557932 4.75370688,3.8569852 C4.36325774,4.06579969 4.06579969,4.36325774 3.8569852,4.75370688 C3.59290159,5.24750032 3.5,5.72858421 3.5,7.1277704 L3.501658,17.176942 L3.51155437,17.6031398 C3.51398506,17.6684453 3.5168182,17.7310274 3.52007149,17.7910966 L6.23117693,15.0802089 C6.84253138,14.4786014 7.23245121,14.2222995 7.747863,14.06608 C8.24342763,13.9158762 8.75657237,13.9158762 9.26248567,14.0692985 L9.346174,14.0960881 C9.81611824,14.2541699 10.1985117,14.5183877 10.7791097,15.0903817 L10.8931669,15.204383 C11.1864195,15.4972075 11.6615802,15.4971545 11.9545102,15.2045215 L14.7829536,12.3767818 C15.3943081,11.7751743 15.7842279,11.5188724 16.2996397,11.3626529 C16.7952043,11.212449 17.3083491,11.212449 17.8039137,11.3626529 C18.3226475,11.5198792 18.712587,11.7778197 19.3310088,12.3870769 L22,15.0558052 L22,17.0836866 C22,18.5177371 21.865225,19.2156592 21.4772693,19.9410734 C21.1241204,20.6014044 20.6014044,21.1241204 19.9410734,21.4772693 C19.3059659,21.8169285 18.6919315,21.9625201 17.5865089,21.9935054 L17.0836866,22 L6.91631345,22 Z M17.3688157,12.7981632 C17.156944,12.7339456 16.9466094,12.7339456 16.7347377,12.7981632 C16.4667877,12.8793778 16.2638532,13.016621 15.7691544,13.5113198 L13.0148897,16.2654623 C12.1361318,17.1433294 10.7122356,17.1434884 9.83302443,16.2655605 L9.72256623,16.1551288 C9.29437318,15.7333016 9.09118115,15.5929045 8.87915442,15.5214839 L8.81703899,15.5015903 C8.6051673,15.4373727 8.3948327,15.4373727 8.18296101,15.5015903 C7.91501101,15.582805 7.7120765,15.7200481 7.21738947,16.2147352 L3.98094669,19.4519096 L4.05262886,19.5515712 L4.10293345,19.6149549 L4.15541417,19.6761293 L4.27981503,19.8041516 L4.18899894,19.7148959 L4.24593395,19.7732824 L4.27981503,19.8041516 C4.41895549,19.9355762 4.57678461,20.0483957 4.75370688,20.1430148 C5.19153706,20.3771689 5.61937528,20.4767436 6.68606965,20.4963062 L7.1277704,20.5 L16.8722296,20.5 L17.3557064,20.4954923 C18.3918853,20.4740999 18.8142239,20.374088 19.2462931,20.1430148 C19.6367423,19.9342003 19.9342003,19.6367423 20.1430148,19.2462931 C20.3771689,18.8084629 20.4767436,18.3806247 20.4963062,17.3139303 L20.5,16.8722296 L20.49975,15.677 L18.2743429,13.4517016 L18.0364253,13.2247616 C17.7879463,12.9977822 17.6314239,12.8948847 17.4632826,12.830363 L17.3688157,12.7981632 Z M8.25,7.25 C9.21649831,7.25 10,8.03350169 10,9 C10,9.96649831 9.21649831,10.75 8.25,10.75 C7.28350169,10.75 6.5,9.96649831 6.5,9 C6.5,8.03350169 7.28350169,7.25 8.25,7.25 Z" id="形状" fill="#182431" fill-rule="nonzero"></path>
    </g>
</svg>