<?xml version="1.0" encoding="UTF-8"?>
<svg width="24px" height="24px" viewBox="0 0 24 24" version="1.1" xmlns="http://www.w3.org/2000/svg" xmlns:xlink="http://www.w3.org/1999/xlink">
    <title>ic_camera_set__Antishake</title>
    <g id="ic_camera_set__Antishake" stroke="none" stroke-width="1" fill="none" fill-rule="evenodd">
        <path d="M12.2701379,3 C13.0497631,3 13.7251996,3.44608495 14.0551309,4.09693826 C14.2766631,4.0122572 14.5179496,3.96558097 14.7701379,3.96558097 C15.8244997,3.96558097 16.688303,4.78145876 16.7646521,5.81631863 L16.7701379,5.96558097 L16.7701186,6.13336262 C16.9299344,6.09222718 17.0974812,6.07034893 17.2701379,6.07034893 C18.3244997,6.07034893 19.188303,6.88622672 19.2646521,7.92108658 L19.2701379,8.07034893 L19.2708325,14.985598 C19.2708325,18.3072605 16.6037742,21 13.3137911,21 C11.2051275,21 9.39016899,19.8001957 8.29634774,18.4056611 L7.71589756,17.6546894 C7.01588986,16.7385232 6.0845255,15.4888633 4.92180446,13.9057096 C4.24176357,13.0352969 4.39609038,11.778406 5.26650302,11.0983651 C6.02003596,10.5096406 7.06322269,10.5462495 7.77102654,11.1314469 L7.77013788,7.08346297 C7.77013788,5.97889347 8.66556838,5.08346297 9.77013788,5.08346297 C9.9431558,5.08346297 10.1110424,5.10543287 10.27116,5.14673509 L10.2701379,5 C10.2701379,3.8954305 11.1655684,3 12.2701379,3 Z M12.2701379,4.5 C12.024678,4.5 11.8205295,4.67687516 11.7781936,4.91012437 L11.7701379,5 L11.7701989,10.6671794 C11.7701989,11.0813929 11.4344125,11.4171794 11.0201989,11.4171794 C10.6405032,11.4171794 10.326708,11.1350255 10.2770456,10.7689499 L10.2701989,10.6671794 L10.2701379,7.08346297 C10.2701379,6.8073206 10.0462803,6.58346297 9.77013788,6.58346297 C9.52467799,6.58346297 9.32052951,6.76033814 9.27819355,6.99358734 L9.27013788,7.08346297 L9.27013788,13.2351216 C9.27013788,13.6493352 8.93435144,13.9851216 8.52013788,13.9851216 C8.29860759,13.9851216 8.09951012,13.8890753 7.96221556,13.7363527 L6.89183135,12.3665559 C6.74071115,12.1731308 6.47564527,12.1211549 6.26577776,12.2313962 L6.18999523,12.2803812 C5.9965702,12.4315014 5.94459422,12.6965673 6.05483558,12.9064348 L6.10382059,12.9822173 L7.28024242,14.5740117 L8.66207799,16.3809701 C8.8821078,16.6702122 9.07746505,16.9280599 9.24814974,17.154513 L9.48567236,17.4706469 L9.48567236,17.4706469 C10.1974815,18.4215577 11.7259163,19.5 13.3137911,19.5 C15.7721123,19.5 17.7708325,17.482034 17.7708325,14.985598 L17.7701379,8.07034893 C17.7701379,7.79420655 17.5462803,7.57034893 17.2701379,7.57034893 C17.024678,7.57034893 16.8205295,7.74722409 16.7781936,7.9804733 L16.7701379,8.07034893 L16.7707714,10.6671794 C16.7707714,11.0468751 16.4886175,11.3606703 16.122542,11.4103328 L16.0207714,11.4171794 C15.6410756,11.4171794 15.3272804,11.1350255 15.277618,10.7689499 L15.2701379,10.6671794 L15.2701379,5.96558097 C15.2701379,5.6894386 15.0462803,5.46558097 14.7701379,5.46558097 C14.524678,5.46558097 14.3205295,5.64245613 14.2781936,5.87570534 L14.2701379,5.96558097 L14.2704852,10.6671794 C14.2704852,11.0813929 13.9346987,11.4171794 13.5204852,11.4171794 C13.1407894,11.4171794 12.8269942,11.1350255 12.7773318,10.7689499 L12.7704852,10.6671794 L12.7701379,5 C12.7701379,4.72385763 12.5462803,4.5 12.2701379,4.5 Z M21.4978052,8.03884631 C21.8533969,8.16054858 22.0568341,8.52537009 21.9860072,8.88412438 L21.9587061,8.98479888 L21.48,10.365284 L21.9592543,11.7487622 C21.9819267,11.8150009 21.9946209,11.8806034 21.9986154,11.9456576 L21.9986154,12.0543424 L21.9860072,12.1521477 L21.9587061,12.2528222 L21.48,13.633284 L21.9592543,15.0167855 C22.0925652,15.4062895 21.8857234,15.8283876 21.4978052,15.9611537 C21.1401321,16.0835683 20.7534249,15.9198749 20.5872388,15.5916655 L20.5475703,15.4981663 L19.9868511,13.8836638 C19.9647234,13.8190108 19.9520293,13.7534083 19.9480348,13.6883541 L19.9480348,13.5796692 L19.960643,13.4818639 L19.9879441,13.3811895 L20.468,11.999284 L19.9873958,10.6172261 C19.9647234,10.5509874 19.9520293,10.485385 19.9480348,10.4203308 L19.9480348,10.3116459 L19.960643,10.2138406 L19.9879441,10.1131661 L20.5475703,8.50183373 C20.6828745,8.11225204 21.1076163,7.90530309 21.4978052,8.03884631 Z M2.50219484,8.03884631 C2.89238368,7.90530309 3.31712549,8.11225204 3.45242974,8.50183373 L3.45242974,8.50183373 L4.0120559,10.1131661 L4.03935698,10.2138406 L4.05196521,10.3116459 L4.05196521,10.4203308 C4.04797069,10.485385 4.03527656,10.5509874 4.01260418,10.6172261 L4.01260418,10.6172261 L3.532,11.999284 L4.0120559,13.3811895 L4.03935698,13.4818639 L4.05196521,13.5796692 L4.05196521,13.6883541 C4.04797069,13.7534083 4.03527656,13.8190108 4.01314887,13.8836638 L4.01314887,13.8836638 L3.45242974,15.4981663 L3.41276122,15.5916655 C3.24657514,15.9198749 2.85986795,16.0835683 2.50219484,15.9611537 C2.11427655,15.8283876 1.90743485,15.4062895 2.04074565,15.0167855 L2.04074565,15.0167855 L2.52,13.633284 L2.04129392,12.2528222 L2.01399285,12.1521477 L2.00138461,12.0543424 L2.00138461,11.9456576 C2.00537914,11.8806034 2.01807327,11.8150009 2.04074565,11.7487622 L2.04074565,11.7487622 L2.52,10.365284 L2.04129392,8.98479888 L2.01399285,8.88412438 C1.94316594,8.52537009 2.14660308,8.16054858 2.50219484,8.03884631 Z" id="path-1" fill="#182431" fill-rule="nonzero"></path>
    </g>
</svg>