<?xml version="1.0" encoding="UTF-8"?>
<svg width="24px" height="24px" viewBox="0 0 24 24" version="1.1" xmlns="http://www.w3.org/2000/svg" xmlns:xlink="http://www.w3.org/1999/xlink">
    <title>ic_camera_phone</title>
    <defs>
        <path d="M15.5,0.5 C17.1313642,0.5 18.4585982,1.80213609 18.49905,3.4237563 L18.5,3.5 L18.5,7.75 C18.9142136,7.75 19.25,8.08578644 19.25,8.5 L19.25,9.5 C19.25,9.91421356 18.9142136,10.25 18.5,10.25 L18.5,20.5 C18.5,22.1313642 17.1978639,23.4585982 15.5762437,23.49905 L15.5,23.5 L8.5,23.5 C6.86863582,23.5 5.54140181,22.1978639 5.50094996,20.5762437 L5.5,3.5 C5.5,1.86863582 6.80213609,0.541401812 8.4237563,0.500949964 L15.5,0.5 Z M15.5,2 L8.5,2 C7.69040076,2 7.03060706,2.64139372 7.00103462,3.44376543 L7,3.5 L7,20.5 C7,21.3095992 7.64139372,21.9693929 8.44376543,21.9989654 L8.5,22 L15.5,22 C16.3095992,22 16.9693929,21.3586063 16.9989654,20.5562346 L17,20.5 L17,3.5 C17,2.69040076 16.3586063,2.03060706 15.5562346,2.00103462 L15.5,2 Z" id="path-1"></path>
    </defs>
    <g id="ic_camera_phone" stroke="none" stroke-width="1" fill="none" fill-rule="evenodd">
        <mask id="mask-2" fill="white">
            <use xlink:href="#path-1"></use>
        </mask>
        <use id="形状结合" fill="#182431" fill-rule="nonzero" opacity="0.6" xlink:href="#path-1"></use>
    </g>
</svg>