<?xml version="1.0" encoding="UTF-8"?>
<svg width="30px" height="30px" viewBox="0 0 30 30" version="1.1" xmlns="http://www.w3.org/2000/svg" xmlns:xlink="http://www.w3.org/1999/xlink">
    <title>ic_camera_public_flash_off</title>
    <defs>
        <path d="M16.2087918,22.3310489 L17.4100571,22.8409557 C17.5371523,22.8949044 17.5964492,23.0416695 17.5425005,23.1687647 C17.5188724,23.224429 17.4758691,23.2696424 17.4214577,23.2960281 L14.5903859,24.6689034 C14.4661515,24.7291486 14.3166014,24.677275 14.2563562,24.5530407 C14.2514421,24.5429071 14.2472184,24.532453 14.243714,24.5217499 L13.2646501,21.5315679 C13.2216863,21.4003514 13.2932294,21.2591505 13.4244459,21.2161867 C13.4819152,21.1973698 13.5442571,21.2000209 13.5999213,21.223649 L14.8276348,21.7447825 L16.2656556,18.3031887 L13.2126091,15.2501422 L11.7667281,15.2501422 C10.8917263,15.2501422 10.5704759,14.3155956 10.8959077,13.664732 L11.1075457,13.1450788 L6.21966991,8.2188888 C5.9267767,7.92599558 5.9267767,7.45112184 6.21966991,7.15822863 C6.51256313,6.86533541 6.98743687,6.86533541 7.28033009,7.15822863 L23.2159701,23.120016 C23.5088633,23.4129093 23.5088633,23.887783 23.2159701,24.1806762 C22.9230768,24.4735694 22.4482031,24.4735694 22.1553099,24.1806762 L17.428412,19.465945 L16.2087918,22.3310489 L16.2087918,22.3310489 Z M17.5413275,15.2501422 L16.7418885,15.2501422 L15.2418885,13.7501422 L18.2667281,13.7501422 C19.0925722,13.7501422 19.5220955,14.6664585 19.1820671,15.3462983 L18.4805599,16.9897104 L17.3037483,15.8128987 L17.5413275,15.2501422 Z M13.8581329,6.39132136 C14.0563042,6.02758928 14.5118169,5.89337573 14.8755489,6.091547 C15.239281,6.28971827 15.3734946,6.74523093 15.1753233,7.108963 L13.3192135,11.8195138 L12.1325322,10.6328326 L13.8581329,6.39132136 Z" id="path-1"></path>
    </defs>
    <g id="ic_camera_public_flash_off" stroke="none" stroke-width="1" fill="none" fill-rule="evenodd">
        <mask id="mask-2" fill="white">
            <use xlink:href="#path-1"></use>
        </mask>
        <use id="path-1" fill="#182431" xlink:href="#path-1"></use>
    </g>
</svg>