<?xml version="1.0" encoding="UTF-8"?>
<svg width="24px" height="24px" viewBox="0 0 24 24" version="1.1" xmlns="http://www.w3.org/2000/svg" xmlns:xlink="http://www.w3.org/1999/xlink">
    <title>ic_camera_set_class</title>
    <g id="ic_camera_set_class" stroke="none" stroke-width="1" fill="none" fill-rule="evenodd">
        <path d="M13,3 C14.1045695,3 15,3.8954305 15,5 L15,19 C15,20.1045695 14.1045695,21 13,21 L5,21 C3.8954305,21 3,20.1045695 3,19 L3,5 C3,3.8954305 3.8954305,3 5,3 L13,3 Z M13,4.5 L5,4.5 C4.72385763,4.5 4.5,4.72385763 4.5,5 L4.5,19 C4.5,19.2761424 4.72385763,19.5 5,19.5 L13,19.5 C13.2761424,19.5 13.5,19.2761424 13.5,19 L13.5,5 C13.5,4.72385763 13.2761424,4.5 13,4.5 Z" id="矩形备份-7" fill="#182431" fill-rule="nonzero"></path>
        <path d="M19,9 C20.1045695,9 21,9.8954305 21,11 L21,19 C21,20.1045695 20.1045695,21 19,21 L16,20.999 L13,21 L13,19.5 L19,19.5 C19.2761424,19.5 19.5,19.2761424 19.5,19 L19.5,11 C19.5,10.7238576 19.2761424,10.5 19,10.5 L15,10.499 L15,8.999 L19,9 Z" id="路径" fill="#182431" fill-rule="nonzero"></path>
    </g>
</svg>