<?xml version="1.0" encoding="UTF-8"?>
<svg width="24px" height="24px" viewBox="0 0 24 24" version="1.1" xmlns="http://www.w3.org/2000/svg"
     xmlns:xlink="http://www.w3.org/1999/xlink">
    <title>FLASH ON备份 2</title>
    <g id="FLASH-ON备份-2" stroke="none" stroke-width="1" fill="none" fill-rule="evenodd">
        <path d="M11.7845452,1.05514391 C12.1548595,1.20520813 12.3402068,1.61722976 12.2133781,1.99065913 L12.1979948,2.0319772 L8.86478752,10.2501984 L16.2546477,10.2501984 C16.7746424,10.2501984 17.1322973,10.7638328 16.9635111,11.2462029 L16.947746,11.2874596 L13.263,20.168 L14.5962394,20.6790438 C14.7896007,20.753237 14.8862055,20.9701328 14.8120123,21.163494 C14.7799295,21.2471078 14.7189819,21.3164789 14.6401942,21.359059 L11.6858078,22.9557313 C11.503607,23.0542001 11.2760794,22.9863219 11.1776106,22.8041211 C11.1684992,22.787262 11.1606936,22.7697292 11.1542623,22.7516769 L10.0275574,19.5890798 C9.95805271,19.3939842 10.0598643,19.1794832 10.25496,19.1099785 C10.3392843,19.0799372 10.4315734,19.0810511 10.515148,19.1131189 L11.862,19.63 L15.1309248,11.7501984 L7.75106878,11.7501984 C7.23354172,11.7501984 6.87602752,11.2410383 7.04035045,10.7596048 L7.05572168,10.7184195 L10.8073006,1.46841953 C10.9629883,1.08455156 11.4005156,0.899521763 11.7845452,1.05514391 Z"
              id="形状结合备份-47" fill="#FFFFFF" fill-rule="nonzero"></path>
    </g>
</svg>