<?xml version="1.0" encoding="UTF-8"?>
<svg width="24px" height="24px" viewBox="0 0 24 24" version="1.1" xmlns="http://www.w3.org/2000/svg"
     xmlns:xlink="http://www.w3.org/1999/xlink">
    <title>滤镜OFF备份 2</title>
    <g id="滤镜OFF备份-2" stroke="none" stroke-width="1" fill="none" fill-rule="evenodd">
        <path d="M3.51116972,2.45399904 L21.5425115,20.4853408 C21.8354047,20.778234 21.8354047,21.2531077 21.5425115,21.546001 C21.2496182,21.8388942 20.7747445,21.8388942 20.4818513,21.546001 L20.2619716,21.3257359 C18.2523695,22.6853251 15.542618,22.7953654 13.3797608,21.3907896 L13.2120188,21.2780101 C12.8720148,21.0414301 12.788173,20.5740163 13.0247531,20.2340122 C13.2613331,19.8940082 13.7287468,19.8101664 14.0687509,20.0467464 L14.1967193,20.1327837 C15.7516649,21.1425771 17.6790076,21.1210216 19.1744803,20.2390694 L13.0644895,14.1281366 L13.1022438,14.2245446 C13.318528,14.8363732 13.4266701,15.5077604 13.4266701,16.2008052 C13.4266701,17.7283325 12.8899321,19.1144221 11.9859523,20.1893487 C11.0819725,19.1144221 10.5452345,17.7283325 10.5452345,16.2008052 C10.5452345,15.5219041 10.6697624,14.8845685 10.865449,14.2709844 L10.9689751,13.9660893 L10.7166434,13.9186703 C8.6300862,13.48223 6.95539178,12.0207767 6.19483187,10.0624083 C6.53382429,10.0058333 6.8728167,9.97754565 7.21180912,9.97754565 C7.92986809,9.97754565 8.62029638,10.1000755 9.26243712,10.3244504 L7.29607643,8.3607813 C7.29988121,8.39485135 7.30405237,8.42885029 7.30858867,8.46277444 C7.36348815,8.87333372 7.07516892,9.2506626 6.66460964,9.30556208 C6.25405036,9.36046156 5.87672148,9.07214232 5.821822,8.66158304 C5.78513066,8.38719116 5.76661581,8.10941587 5.76661581,7.82955125 C5.76661581,7.51365265 5.79014478,7.20324954 5.83554582,6.89999881 L2.45050954,3.51465921 C2.15761632,3.22176599 2.15761632,2.74689226 2.45050954,2.45399904 C2.74340276,2.16110582 3.2182765,2.16110582 3.51116972,2.45399904 Z M5.56600089,10.8978734 C5.74356492,11.2720978 5.5841402,11.7194107 5.20991582,11.8969747 C5.0198375,11.9871641 4.8349034,12.0904637 4.65599011,12.2066514 C2.46724911,13.6280364 1.84518418,16.5546218 3.26656921,18.7433628 C4.6461488,20.867729 7.44368962,21.5162213 9.60829867,20.252909 L9.80328063,20.1327837 L9.93124907,20.0467464 C10.2712531,19.8101664 10.7386669,19.8940082 10.9752469,20.2340122 C11.2118269,20.5740163 11.1279852,21.0414301 10.7879811,21.2780101 L10.7046255,21.3350262 L10.6202392,21.3907896 L10.4265969,21.5116467 C7.56634094,23.2259256 3.83952927,22.3797616 2.00856336,19.5603214 C0.135984579,16.6768029 0.955513109,12.8212243 3.83903156,10.9486455 C4.07374578,10.7962203 4.31679165,10.6604609 4.56689958,10.5417883 C4.94112397,10.3642243 5.38843686,10.523649 5.56600089,10.8978734 Z M19.4331004,10.5417883 C19.6832083,10.6604609 19.9262542,10.7962203 20.1609684,10.9486455 C23.0362285,12.8158612 23.8593042,16.6547342 22.0074597,19.5355222 L20.9137871,18.4420778 C22.0953442,16.2929842 21.4337626,13.5637526 19.3440099,12.2066514 C19.1650966,12.0904637 18.9801625,11.9871641 18.7900842,11.8969747 C18.4158598,11.7194107 18.2564351,11.2720978 18.4339991,10.8978734 C18.6115631,10.523649 19.058876,10.3642243 19.4331004,10.5417883 Z M16.7600955,9.97754565 C17.099088,9.97754565 17.4380804,10.0058333 17.7770728,10.0624083 C17.3091048,11.2506451 16.4950574,12.2705591 15.4519311,12.9815601 L13.4206134,10.9499495 C14.3839272,10.3362105 15.5315716,9.97754565 16.7600955,9.97754565 Z M11.9920304,1.60413663 C15.430232,1.60413663 18.217445,4.39134969 18.217445,7.82955125 C18.217445,8.11344621 18.1983931,8.39518837 18.1606436,8.67342611 C18.1049561,9.08387923 17.7270744,9.37147355 17.3166213,9.315786 C16.9061681,9.26009844 16.6185738,8.88221675 16.6742614,8.47176362 C16.702949,8.26031739 16.717445,8.04594842 16.717445,7.82955125 C16.717445,5.21977682 14.6018048,3.10413663 11.9920304,3.10413663 C10.2530189,3.10413663 8.73341104,4.04351552 7.91295914,5.44252103 L6.8252978,4.35556414 C7.94346234,2.69582968 9.8402571,1.60413663 11.9920304,1.60413663 Z"
              id="形状结合" fill="#FFFFFF" fill-rule="nonzero"></path>
    </g>
</svg>