<?xml version="1.0" encoding="UTF-8"?>
<svg width="30px" height="30px" viewBox="0 0 30 30" version="1.1" xmlns="http://www.w3.org/2000/svg" xmlns:xlink="http://www.w3.org/1999/xlink">
    <title>ic_camera_public_flash_auto</title>
    <defs>
        <path d="M10.1039893,6.091547 C10.4677214,6.28971827 10.6019349,6.74523093 10.4037637,7.108963 L7.78546603,13.7501422 L13.4951685,13.7501422 C14.3210126,13.7501422 14.7505358,14.6664585 14.4105074,15.3462983 L11.446,22.335 L12.6367878,22.8408135 C12.763883,22.8947622 12.8231799,23.0415273 12.7692312,23.1686225 C12.7456031,23.2242868 12.7025998,23.2695002 12.6481885,23.2958859 L9.81711664,24.6687612 C9.69288228,24.7290064 9.5433321,24.6771328 9.48308697,24.5528985 C9.47817287,24.5427649 9.47394916,24.5323108 9.47044468,24.5216077 L8.49138079,21.5314258 C8.44841706,21.4002093 8.51996008,21.2590083 8.65117659,21.2160446 C8.70864589,21.1972276 8.77098779,21.1998788 8.82665207,21.2235068 L10.064,21.748 L12.7697679,15.2501422 L6.99516847,15.2501422 C6.12016664,15.2501422 5.79891626,14.3155956 6.12434807,13.664732 L9.08657328,6.39132136 C9.28474455,6.02758928 9.74025722,5.89337573 10.1039893,6.091547 Z M20.4817165,14.0083008 L23.9578857,24.1240903 L22.222464,24.1240903 L21.4837544,21.9060741 L17.9792731,21.9060741 L17.3788178,24.1240903 L15.8065094,24.1240903 L18.9303912,14.0083008 L20.4817165,14.0083008 Z M19.7858212,16.0526316 L18.4288103,20.4736842 L21.1571089,20.4736842 L19.7858212,16.0526316 Z" id="path-1"></path>
    </defs>
    <g id="ic_camera_public_flash_auto" stroke="none" stroke-width="1" fill="none" fill-rule="evenodd">
        <mask id="mask-2" fill="white">
            <use xlink:href="#path-1"></use>
        </mask>
        <use id="path-1" fill="#182431" xlink:href="#path-1"></use>
    </g>
</svg>