<?xml version="1.0" encoding="UTF-8"?>
<svg width="24px" height="24px" viewBox="0 0 24 24" version="1.1" xmlns="http://www.w3.org/2000/svg" xmlns:xlink="http://www.w3.org/1999/xlink">
    <title>LIVEPHOTO OFF备份 2</title>
    <g id="LIVEPHOTO-OFF备份-2" stroke="none" stroke-width="1" fill="none" fill-rule="evenodd">
        <path d="M12.0046316,21.5 C12.4190195,21.5 12.7549474,21.8357864 12.7549474,22.25 C12.7549474,22.6642136 12.4190195,23 12.0046316,23 C11.5902436,23 11.2543158,22.6642136 11.2543158,22.25 C11.2543158,21.8357864 11.5902436,21.5 12.0046316,21.5 Z M9.54481537,21.1762953 C9.94508341,21.2835017 10.1826203,21.6947544 10.0753688,22.094854 C9.96811726,22.4949536 9.55669138,22.7323904 9.15642334,22.6251841 C8.7561553,22.5179777 8.51861846,22.106725 8.62586996,21.7066254 C8.73312146,21.3065259 9.14454733,21.069089 9.54481537,21.1762953 Z M15.3833932,21.7066254 C15.4906447,22.106725 15.2531079,22.5179777 14.8528398,22.6251841 C14.4525718,22.7323904 14.0411459,22.4949536 13.9338944,22.094854 C13.8266429,21.6947544 14.0641797,21.2835017 14.4644478,21.1762953 C14.8647158,21.069089 15.2761417,21.3065259 15.3833932,21.7066254 Z M3.51465921,2.45399904 L21.546001,20.4853408 C21.8388942,20.778234 21.8388942,21.2531077 21.546001,21.546001 C21.2531077,21.8388942 20.778234,21.8388942 20.4853408,21.546001 L16.888443,17.9494987 C15.55881,19.0432694 13.8560988,19.7 12,19.7 C7.74740743,19.7 4.3,16.2525926 4.3,12 C4.3,10.1439012 4.95673059,8.44119003 6.05050126,7.11155702 L2.45399904,3.51465921 C2.16110582,3.22176599 2.16110582,2.74689226 2.45399904,2.45399904 C2.74689226,2.16110582 3.22176599,2.16110582 3.51465921,2.45399904 Z M17.781582,20.5017604 C17.988776,20.8604799 17.8658179,21.3191727 17.5069474,21.5262794 C17.1480769,21.7333862 16.6891909,21.6104799 16.4819969,21.2517604 C16.274803,20.8930409 16.3977611,20.4343481 16.7566316,20.2272413 C17.1155021,20.0201346 17.574388,20.1430409 17.781582,20.5017604 Z M7.25263158,20.2272413 C7.61150209,20.4343481 7.7344602,20.8930409 7.52726622,21.2517604 C7.32007223,21.6104799 6.8611863,21.7333862 6.50231579,21.5262794 C6.14344528,21.3191727 6.02048717,20.8604799 6.22768115,20.5017604 C6.43487513,20.1430409 6.89376107,20.0201346 7.25263158,20.2272413 Z M5.28428873,18.7175144 C5.57730527,19.0104076 5.57730527,19.4852814 5.28428873,19.7781746 C4.99127219,20.0710678 4.51619851,20.0710678 4.22318197,19.7781746 C3.93016542,19.4852814 3.93016542,19.0104076 4.22318197,18.7175144 C4.51619851,18.4246212 4.99127219,18.4246212 5.28428873,18.7175144 Z M5.8,12 C5.8,15.4241654 8.57583455,18.2 12,18.2 C13.4416813,18.2 14.7684346,17.7079349 15.8214733,16.8825912 L14.5352958,15.5970484 C13.8184733,16.1028677 12.9437402,16.4 11.9995789,16.4 C9.56850287,16.4 7.59772632,14.4300529 7.59772632,12 C7.59772632,11.0554647 7.89546981,10.1804419 8.40225725,9.46359378 L7.11740883,8.17852673 C6.29206515,9.23156545 5.8,10.5583187 5.8,12 Z M3.77392614,16.75 C3.98112013,17.1087195 3.85816201,17.5674123 3.4992915,17.7745191 C3.14042099,17.9816258 2.68153506,17.8587195 2.47434107,17.5 C2.26714709,17.1412805 2.3901052,16.6825877 2.74897571,16.4754809 C3.10784622,16.2683742 3.56673216,16.3912805 3.77392614,16.75 Z M21.2602874,16.4754809 C21.619158,16.6825877 21.7421161,17.1412805 21.5349221,17.5 C21.3277281,17.8587195 20.8688422,17.9816258 20.5099717,17.7745191 C20.1511011,17.5674123 20.028143,17.1087195 20.235337,16.75 C20.442531,16.3912805 20.9014169,16.2683742 21.2602874,16.4754809 Z M12,4.3 C16.2525926,4.3 19.7,7.74740743 19.7,12 C19.7,13.4923905 19.2754293,14.8856172 18.5404851,16.0654829 L17.4438065,14.9697607 C17.9259346,14.0878536 18.2,13.0759325 18.2,12 C18.2,8.57583455 15.4241654,5.8 12,5.8 C10.9240675,5.8 9.91214637,6.07406537 9.03023927,6.55619348 L7.9345171,5.45951488 C9.1143828,4.72457069 10.5076095,4.3 12,4.3 Z M22.103736,13.9284508 C22.5040041,14.0356572 22.7415409,14.4469099 22.6342894,14.8470095 C22.5270379,15.2471091 22.1156121,15.4845459 21.715344,15.3773396 C21.315076,15.2701332 21.0775391,14.8588805 21.1847906,14.4587809 C21.2920421,14.0586814 21.703468,13.8212445 22.103736,13.9284508 Z M2.82447253,14.4587809 C2.93172402,14.8588805 2.69418718,15.2701332 2.29391914,15.3773396 C1.8936511,15.4845459 1.48222523,15.2471091 1.37497373,14.8470095 C1.26772223,14.4469099 1.50525907,14.0356572 1.90552711,13.9284508 C2.30579515,13.8212445 2.71722103,14.0586814 2.82447253,14.4587809 Z M9.09835789,12 C9.09835789,13.6016258 10.3972788,14.9 11.9995789,14.9 C12.5283303,14.9 13.0240447,14.7586111 13.4509467,14.5115936 L9.48746776,10.5483111 C9.24001232,10.9752439 9.09835789,11.4710864 9.09835789,12 Z M11.9995789,7.6 C14.430655,7.6 16.4014316,9.5699471 16.4014316,12 C16.4014316,12.5717772 16.2923228,13.1180813 16.0937818,13.6192443 L14.8736306,12.398525 C14.8915439,12.2682434 14.9008,12.1352022 14.9008,12 C14.9008,10.3983742 13.6018791,9.1 11.9995789,9.1 C11.8646667,9.1 11.7319052,9.10920482 11.6018888,9.12702043 L10.3816322,7.90673733 C10.8824651,7.708776 11.4283137,7.6 11.9995789,7.6 Z M22.2589474,11.25 C22.6733353,11.25 23.0092632,11.5857864 23.0092632,12 C23.0092632,12.4142136 22.6733353,12.75 22.2589474,12.75 C21.8445594,12.75 21.5086316,12.4142136 21.5086316,12 C21.5086316,11.5857864 21.8445594,11.25 22.2589474,11.25 Z M1.75031579,11.25 C2.16470376,11.25 2.50063158,11.5857864 2.50063158,12 C2.50063158,12.4142136 2.16470376,12.75 1.75031579,12.75 C1.33592782,12.75 1,12.4142136 1,12 C1,11.5857864 1.33592782,11.25 1.75031579,11.25 Z M22.6342894,9.1529905 C22.7415409,9.55309008 22.5040041,9.9643428 22.103736,10.0715492 C21.703468,10.1787555 21.2920421,9.94131865 21.1847906,9.54121907 C21.0775391,9.14111949 21.315076,8.72986678 21.715344,8.62266042 C22.1156121,8.51545406 22.5270379,8.75289093 22.6342894,9.1529905 Z M2.29391914,8.62266042 C2.69418718,8.72986678 2.93172402,9.14111949 2.82447253,9.54121907 C2.71722103,9.94131865 2.30579515,10.1787555 1.90552711,10.0715492 C1.50525907,9.9643428 1.26772223,9.55309008 1.37497373,9.1529905 C1.48222523,8.75289093 1.8936511,8.51545406 2.29391914,8.62266042 Z M21.5349221,6.5 C21.7421161,6.85871947 21.619158,7.31741227 21.2602874,7.52451905 C20.9014169,7.73162583 20.442531,7.60871947 20.235337,7.25 C20.028143,6.89128053 20.1511011,6.43258773 20.5099717,6.22548095 C20.8688422,6.01837417 21.3277281,6.14128053 21.5349221,6.5 Z M3.4992915,6.22548095 C3.85816201,6.43258773 3.98112013,6.89128053 3.77392614,7.25 C3.56673216,7.60871947 3.10784622,7.73162583 2.74897571,7.52451905 C2.3901052,7.31741227 2.26714709,6.85871947 2.47434107,6.5 C2.68153506,6.14128053 3.14042099,6.01837417 3.4992915,6.22548095 Z M19.7860812,4.22182541 C20.0790977,4.51471863 20.0790977,4.98959236 19.7860812,5.28248558 C19.4930647,5.5753788 19.017991,5.5753788 18.7249744,5.28248558 C18.4319579,4.98959236 18.4319579,4.51471863 18.7249744,4.22182541 C19.017991,3.92893219 19.4930647,3.92893219 19.7860812,4.22182541 Z M17.5069474,2.47372056 C17.8658179,2.68082734 17.988776,3.13952014 17.781582,3.49823961 C17.574388,3.85695908 17.1155021,3.97986545 16.7566316,3.77275866 C16.3977611,3.56565188 16.274803,3.10695908 16.4819969,2.74823961 C16.6891909,2.38952014 17.1480769,2.26661378 17.5069474,2.47372056 Z M7.52726622,2.74823961 C7.7344602,3.10695908 7.61150209,3.56565188 7.25263158,3.77275866 C6.89376107,3.97986545 6.43487513,3.85695908 6.22768115,3.49823961 C6.02048717,3.13952014 6.14344528,2.68082734 6.50231579,2.47372056 C6.8611863,2.26661378 7.32007223,2.38952014 7.52726622,2.74823961 Z M14.8528398,1.37481591 C15.2531079,1.48202227 15.4906447,1.89327499 15.3833932,2.29337456 C15.2761417,2.69347414 14.8647158,2.93091101 14.4644478,2.82370465 C14.0641797,2.71649829 13.8266429,2.30524557 13.9338944,1.905146 C14.0411459,1.50504642 14.4525718,1.26760955 14.8528398,1.37481591 Z M10.0753688,1.905146 C10.1826203,2.30524557 9.94508341,2.71649829 9.54481537,2.82370465 C9.14454733,2.93091101 8.73312146,2.69347414 8.62586996,2.29337456 C8.51861846,1.89327499 8.7561553,1.48202227 9.15642334,1.37481591 C9.55669138,1.26760955 9.96811726,1.50504642 10.0753688,1.905146 Z M12.0046316,1 C12.4190195,1 12.7549474,1.33578644 12.7549474,1.75 C12.7549474,2.16421356 12.4190195,2.5 12.0046316,2.5 C11.5902436,2.5 11.2543158,2.16421356 11.2543158,1.75 C11.2543158,1.33578644 11.5902436,1 12.0046316,1 Z" id="形状结合" fill="#FFFFFF"></path>
    </g>
</svg>