<svg width="24.000000" height="24.000000" viewBox="0 0 24 24" fill="none" xmlns="http://www.w3.org/2000/svg" xmlns:xlink="http://www.w3.org/1999/xlink">
	<desc>
			Created with Pixso.
	</desc>
	<defs/>
	<path id="路径" d="M12 1C18.07 1 23 5.92 23 12C23 18.07 18.07 23 12 23C5.92 23 1 18.07 1 12C1 5.92 5.92 1 12 1Z" fill="#000000" fill-opacity="0.200000" fill-rule="evenodd"/>
	<mask id="mask_31_3193" fill="white">
		<path id="形状结合" d="M15.1819 7.75732C15.4749 7.46436 15.9497 7.46436 16.2427 7.75732C16.5356 8.05029 16.5356 8.5249 16.2427 8.81787L8.81812 16.2427C8.52515 16.5356 8.05029 16.5356 7.75732 16.2427C7.46436 15.9497 7.46436 15.4746 7.75732 15.1821L10.9395 12L7.75732 8.81787C7.46436 8.5249 7.46436 8.05029 7.75732 7.75732C8.05029 7.46436 8.52515 7.46436 8.81812 7.75732L12 10.9395L15.1819 7.75732ZM15.1819 16.2427L12.707 13.7676L13.7678 12.707L16.2427 15.1821C16.5356 15.4746 16.5356 15.9497 16.2427 16.2427C15.9497 16.5356 15.4749 16.5356 15.1819 16.2427Z" clip-rule="evenodd" fill="" fill-opacity="1.000000" fill-rule="evenodd"/>
	</mask>
	<path id="形状结合" d="M15.1819 7.75732C15.4749 7.46436 15.9497 7.46436 16.2427 7.75732C16.5356 8.05029 16.5356 8.5249 16.2427 8.81787L8.81812 16.2427C8.52515 16.5356 8.05029 16.5356 7.75732 16.2427C7.46436 15.9497 7.46436 15.4746 7.75732 15.1821L10.9395 12L7.75732 8.81787C7.46436 8.5249 7.46436 8.05029 7.75732 7.75732C8.05029 7.46436 8.52515 7.46436 8.81812 7.75732L12 10.9395L15.1819 7.75732ZM15.1819 16.2427L12.707 13.7676L13.7678 12.707L16.2427 15.1821C16.5356 15.4746 16.5356 15.9497 16.2427 16.2427C15.9497 16.5356 15.4749 16.5356 15.1819 16.2427Z" clip-rule="evenodd" fill="#FFFFFF" fill-opacity="1.000000" fill-rule="evenodd" mask="url(#mask_31_3193)"/>
	<path id="形状结合" d="" clip-rule="evenodd" fill="#979797" fill-opacity="0.000000" fill-rule="evenodd"/>
</svg>
