<svg width="16.000000" height="16.000000" viewBox="0 0 16 16" fill="none" xmlns="http://www.w3.org/2000/svg" xmlns:xlink="http://www.w3.org/1999/xlink">
	<desc>
			Created with Pixso.
	</desc>
	<defs>
		<clipPath id="clip28_44554">
			<rect id="svg" width="16.000000" height="16.000000" fill="white" fill-opacity="0"/>
		</clipPath>
	</defs>
	<g clip-path="url(#clip28_44554)">
		<path id="path-1" d="M8 0.59C11.4 0.59 14.16 3.3 14.16 6.65C14.16 7.95 13.77 9.23 13.03 10.51C12.58 11.32 12.03 12.07 11.3 12.93L11.12 13.14L10.94 13.36C10.88 13.43 10.81 13.5 10.75 13.57C10.6 13.74 10.44 13.91 10.26 14.09L10.12 14.23C10.02 14.32 9.92 14.42 9.82 14.52L9.66 14.66L9.58 14.74L9.41 14.89C9.35 14.94 9.29 14.99 9.23 15.05L9.05 15.2C8.46 15.7 7.61 15.72 7 15.24L6.73 15L6.6 14.88L6.4 14.71L6.22 14.55L6.06 14.4L5.91 14.26L5.81 14.17L5.72 14.08L5.64 14L5.56 13.92L5.49 13.85L5.4 13.75L5.24 13.57L5.07 13.38C5.04 13.35 5.01 13.32 4.99 13.28L4.82 13.09L4.66 12.9L4.58 12.81L4.43 12.62L4.28 12.43C2.68 10.41 1.83 8.6 1.83 6.65C1.83 3.32 4.47 0.64 7.82 0.59L7.91 0.59L8 0.59ZM8 1.59L7.92 1.59L7.83 1.59C5.03 1.63 2.83 3.87 2.83 6.65C2.83 8.59 3.86 10.48 5.82 12.72L5.99 12.91L6.14 13.07L6.22 13.16L6.35 13.29L6.46 13.4L6.58 13.52L6.72 13.65L6.82 13.74L6.98 13.88L7.15 14.03L7.33 14.2L7.6 14.43C7.83 14.61 8.18 14.63 8.4 14.44L8.57 14.29L8.74 14.15C8.79 14.1 8.85 14.05 8.9 14L9.05 13.86L9.2 13.72L9.34 13.59L9.48 13.46C9.67 13.26 9.85 13.08 10 12.91C10.03 12.88 10.06 12.85 10.08 12.82L10.25 12.63C10.28 12.59 10.3 12.56 10.33 12.53L10.49 12.35L10.64 12.16C10.74 12.04 10.84 11.92 10.94 11.8L11.08 11.62C12.48 9.82 13.16 8.31 13.16 6.65C13.16 3.86 10.85 1.59 8 1.59ZM8 5.16C8.82 5.16 9.5 5.83 9.5 6.66C9.5 7.49 8.82 8.16 8 8.16C7.17 8.16 6.5 7.49 6.5 6.66C6.5 5.83 7.17 5.16 8 5.16Z" fill="#000000" fill-opacity="1.000000" fill-rule="nonzero"/>
		<path id="path-1" d="M14.16 6.65C14.16 7.95 13.77 9.23 13.03 10.51C12.58 11.32 12.03 12.07 11.3 12.93L11.12 13.14L10.94 13.36C10.88 13.43 10.81 13.5 10.75 13.57C10.6 13.74 10.44 13.91 10.26 14.09L10.12 14.23C10.02 14.32 9.92 14.42 9.82 14.52L9.66 14.66L9.58 14.74L9.41 14.89C9.35 14.94 9.29 14.99 9.23 15.05L9.05 15.2C8.46 15.7 7.61 15.72 7 15.24L6.73 15L6.6 14.88L6.4 14.71L6.22 14.55L6.06 14.4L5.91 14.26L5.81 14.17L5.72 14.08L5.64 14L5.56 13.92L5.49 13.85L5.4 13.75L5.24 13.57L5.07 13.38C5.04 13.35 5.01 13.32 4.99 13.28L4.82 13.09L4.66 12.9L4.58 12.81L4.43 12.62L4.28 12.43C2.68 10.41 1.83 8.6 1.83 6.65C1.83 3.32 4.47 0.64 7.82 0.59L7.91 0.59L8 0.59C11.4 0.59 14.16 3.3 14.16 6.65ZM7.92 1.59L7.83 1.59C5.03 1.63 2.83 3.87 2.83 6.65C2.83 8.59 3.86 10.48 5.82 12.72L5.99 12.91L6.14 13.07L6.22 13.16L6.35 13.29L6.46 13.4L6.58 13.52L6.72 13.65L6.82 13.74L6.98 13.88L7.15 14.03L7.33 14.2L7.6 14.43C7.83 14.61 8.18 14.63 8.4 14.44L8.57 14.29L8.74 14.15C8.79 14.1 8.85 14.05 8.9 14L9.05 13.86L9.2 13.72L9.34 13.59L9.48 13.46C9.67 13.26 9.85 13.08 10 12.91C10.03 12.88 10.06 12.85 10.08 12.82L10.25 12.63C10.28 12.59 10.3 12.56 10.33 12.53L10.49 12.35L10.64 12.16C10.74 12.04 10.84 11.92 10.94 11.8L11.08 11.62C12.48 9.82 13.16 8.31 13.16 6.65C13.16 3.86 10.85 1.59 8 1.59L7.92 1.59ZM9.5 6.66C9.5 7.49 8.82 8.16 8 8.16C7.17 8.16 6.5 7.49 6.5 6.66C6.5 5.83 7.17 5.16 8 5.16C8.82 5.16 9.5 5.83 9.5 6.66Z" stroke="#000000" stroke-opacity="0" stroke-width="0.666667"/>
	</g>
</svg>
