<?xml version="1.0" encoding="UTF-8"?>
<svg width="30px" height="30px" viewBox="0 0 30 30" version="1.1" xmlns="http://www.w3.org/2000/svg" xmlns:xlink="http://www.w3.org/1999/xlink">
    <title>ic_public_brightness</title>
    <g id="ic_public_brightness" stroke="none" stroke-width="1" fill="none" fill-rule="evenodd">
        <path d="M15,23 C15.4142136,23 15.75,23.3357864 15.75,23.75 L15.75,24.75 C15.75,25.1642136 15.4142136,25.5 15,25.5 C14.5857864,25.5 14.25,25.1642136 14.25,24.75 L14.25,23.75 C14.25,23.3357864 14.5857864,23 15,23 Z M21.7175144,20.6568542 L22.6013979,21.5407377 C22.8942911,21.8336309 22.8942911,22.3085047 22.6013979,22.6013979 C22.3085047,22.8942911 21.8336309,22.8942911 21.5407377,22.6013979 L20.6568542,21.7175144 C20.363961,21.4246212 20.363961,20.9497475 20.6568542,20.6568542 C20.9497475,20.363961 21.4246212,20.363961 21.7175144,20.6568542 Z M9.34314575,20.6568542 C9.63603897,20.9497475 9.63603897,21.4246212 9.34314575,21.7175144 L8.45926227,22.6013979 C8.16636906,22.8942911 7.69149532,22.8942911 7.3986021,22.6013979 C7.10570888,22.3085047 7.10570888,21.8336309 7.3986021,21.5407377 L8.28248558,20.6568542 C8.5753788,20.363961 9.05025253,20.363961 9.34314575,20.6568542 Z M15,8 C18.8659932,8 22,11.1340068 22,15 C22,18.8659932 18.8659932,22 15,22 C11.1340068,22 8,18.8659932 8,15 C8,11.1340068 11.1340068,8 15,8 Z M15,9.5 C11.9624339,9.5 9.5,11.9624339 9.5,15 C9.5,18.0375661 11.9624339,20.5 15,20.5 C18.0375661,20.5 20.5,18.0375661 20.5,15 C20.5,11.9624339 18.0375661,9.5 15,9.5 Z M25,14.25 C25.4142136,14.25 25.75,14.5857864 25.75,15 C25.75,15.4142136 25.4142136,15.75 25,15.75 L23.75,15.75 C23.3357864,15.75 23,15.4142136 23,15 C23,14.5857864 23.3357864,14.25 23.75,14.25 L25,14.25 Z M6.25,14.25 C6.66421356,14.25 7,14.5857864 7,15 C7,15.4142136 6.66421356,15.75 6.25,15.75 L5,15.75 C4.58578644,15.75 4.25,15.4142136 4.25,15 C4.25,14.5857864 4.58578644,14.25 5,14.25 L6.25,14.25 Z M8.45926227,7.3986021 L9.34314575,8.28248558 C9.63603897,8.5753788 9.63603897,9.05025253 9.34314575,9.34314575 C9.05025253,9.63603897 8.5753788,9.63603897 8.28248558,9.34314575 L7.3986021,8.45926227 C7.10570888,8.16636906 7.10570888,7.69149532 7.3986021,7.3986021 C7.69149532,7.10570888 8.16636906,7.10570888 8.45926227,7.3986021 Z M22.6013979,7.3986021 C22.8942911,7.69149532 22.8942911,8.16636906 22.6013979,8.45926227 L21.7175144,9.34314575 C21.4246212,9.63603897 20.9497475,9.63603897 20.6568542,9.34314575 C20.363961,9.05025253 20.363961,8.5753788 20.6568542,8.28248558 L21.5407377,7.3986021 C21.8336309,7.10570888 22.3085047,7.10570888 22.6013979,7.3986021 Z M15,4.5 C15.4142136,4.5 15.75,4.83578644 15.75,5.25 L15.75,6.25 C15.75,6.66421356 15.4142136,7 15,7 C14.5857864,7 14.25,6.66421356 14.25,6.25 L14.25,5.25 C14.25,4.83578644 14.5857864,4.5 15,4.5 Z" id="形状" fill="#FFFFFF" fill-rule="nonzero"></path>
    </g>
</svg>