<svg width="24.000000" height="24.000000" viewBox="0 0 24 24" fill="none" xmlns="http://www.w3.org/2000/svg" xmlns:xlink="http://www.w3.org/1999/xlink">
	<desc>
			Created with Pixso.
	</desc>
	<defs/>
	<mask id="mask31_8709" mask-type="alpha" maskUnits="userSpaceOnUse" x="1.250122" y="1.385742" width="21.500004" height="20.864801">
		<path id="形状结合" d="M22.4756 11.1885C22.8286 10.8169 22.8394 10.2441 22.5184 9.86035L22.4384 9.7749L14.7532 2.48389C13.2596 1.06689 10.9456 1.021 9.39911 2.34668L9.24709 2.48389L1.56186 9.7749C1.16119 10.1553 1.14455 10.7881 1.52466 11.1885C1.87762 11.5605 2.44859 11.6016 2.84915 11.3013L2.93839 11.2261L10.6236 3.93457C11.3585 3.23779 12.4908 3.20459 13.2635 3.83545L13.3766 3.93457L21.0619 11.2261C21.4625 11.606 22.0955 11.5894 22.4756 11.1885ZM3 19.2505L3 12.584L11.3119 4.66016C11.6892 4.30225 12.2777 4.29395 12.6531 4.62793L12.6884 4.66016L21 12.5835L21 19.2505C21 20.9072 19.6569 22.2505 18 22.2505L6 22.2505C4.34314 22.2505 3 20.9072 3 19.2505ZM12 13.5005C10.3431 13.5005 9 14.8438 9 16.5005L9 20.2505L15 20.2505L15 16.5005C15 14.8438 13.6569 13.5005 12 13.5005Z" clip-rule="evenodd" fill="#000000" fill-opacity="1.000000" fill-rule="evenodd"/>
	</mask>
	<g mask="url(#mask31_8709)">
		<rect id="color/#000000" width="24.000000" height="24.000000" fill="#0A59F7" fill-opacity="1.000000"/>
	</g>
</svg>
