<svg width="16.000000" height="16.000000" viewBox="0 0 16 16" fill="none" xmlns="http://www.w3.org/2000/svg" xmlns:xlink="http://www.w3.org/1999/xlink">
	<desc>
			Created with Pixso.
	</desc>
	<defs/>
	<rect id="画板 541" width="16.000000" height="16.000000" fill="#FFFFFF" fill-opacity="0"/>
	<rect id="画板 540" width="14.000000" height="12.000000" transform="translate(1.000000 2.000000)" fill="#FFFFFF" fill-opacity="0"/>
	<path id="path-1" d="M2.16 3.22C3.65 1.76 5.96 1.6 7.62 2.75C7.82 2.89 8.01 3.05 8.19 3.22L8.11 3.14C8.12 3.15 8.13 3.16 8.14 3.18L8.19 3.22C8.26 3.29 8.33 3.35 8.39 3.42C8.48 3.51 8.58 3.61 8.67 3.7L8.75 3.78C9.04 4.07 9.27 4.3 9.44 4.49C9.61 4.68 9.6 4.97 9.4 5.15C9.21 5.32 8.91 5.3 8.73 5.11L8.64 5.02C8.39 4.74 8.01 4.37 7.52 3.88L7.41 3.78C6.11 2.61 4.09 2.65 2.83 3.88C1.62 5.08 1.67 6.99 2.86 8.56C3.26 9.08 3.88 9.75 4.68 10.51L4.68 10.51L4.71 10.54C5.07 10.89 5.75 11.47 6.73 12.3L6.73 12.3L7.39 12.84C7.74 13.14 8.25 13.14 8.61 12.84L8.61 12.84L9.21 12.35C10.17 11.54 10.85 10.95 11.23 10.59L11.23 10.59L11.39 10.43C12.15 9.7 12.74 9.06 13.13 8.56C14.32 6.99 14.37 5.08 13.16 3.88C12.08 2.83 10.46 2.65 9.2 3.34C9.02 3.16 8.83 2.97 8.64 2.78C8.6 2.74 8.55 2.7 8.51 2.66C10.16 1.61 12.38 1.8 13.83 3.22C15.41 4.78 15.34 7.21 13.88 9.12L13.88 9.12L13.84 9.18C13.39 9.75 12.73 10.46 11.88 11.26L11.88 11.26L11.85 11.29C11.43 11.69 10.71 12.31 9.69 13.17L9.69 13.17L9.22 13.56C8.51 14.14 7.48 14.14 6.77 13.56C5.45 12.45 4.55 11.68 4.07 11.23L4.07 11.23L3.93 11.1C3.14 10.34 2.52 9.67 2.11 9.12C0.65 7.21 0.58 4.78 2.16 3.22Z" fill="#000000" fill-opacity="0.400000" fill-rule="evenodd"/>
</svg>
