<?xml version="1.0" encoding="UTF-8"?>
<svg width="24px" height="24px" viewBox="0 0 24 24" version="1.1" xmlns="http://www.w3.org/2000/svg" xmlns:xlink="http://www.w3.org/1999/xlink">
    <title>Public/ic_public_comments</title>
    <defs>
        <path d="M15.5,3 C19.6421356,3 23,6.35786438 23,10.5 C23,14.6007143 19.7089571,17.9327643 15.6240262,17.9989952 L15.5,18 L13.8105,18 L10.0303301,21.7803301 C9.7491526,22.0615076 9.30026186,22.0727547 9.00566731,21.8140714 L8.96966991,21.7803301 C8.68849242,21.4991526 8.67724532,21.0502619 8.93592862,20.7556673 L8.96966991,20.7196699 L12.9696699,16.7196699 C13.0986012,16.5907387 13.2696414,16.5135976 13.4504659,16.5016361 L13.5,16.5 L15.5,16.5 C18.8137085,16.5 21.5,13.8137085 21.5,10.5 C21.5,7.21942859 18.8671657,4.55378857 15.599221,4.50080383 L8.5,4.5 C5.1862915,4.5 2.5,7.1862915 2.5,10.5 C2.5,13.7805714 5.1328343,16.4462114 8.40077903,16.4991962 L8.5,16.5 L9.25,16.5 C9.66421356,16.5 10,16.8357864 10,17.25 C10,17.6494202 9.68777001,17.9759152 9.2940682,17.9987268 L9.25,18 L8.5,18 C4.35786438,18 1,14.6421356 1,10.5 C1,6.39928573 4.29104288,3.06723571 8.37597379,3.00100479 L8.5,3 L15.5,3 Z M7,9.25 C7.69035594,9.25 8.25,9.80964406 8.25,10.5 C8.25,11.1903559 7.69035594,11.75 7,11.75 C6.30964406,11.75 5.75,11.1903559 5.75,10.5 C5.75,9.80964406 6.30964406,9.25 7,9.25 Z M12,9.25 C12.6903559,9.25 13.25,9.80964406 13.25,10.5 C13.25,11.1903559 12.6903559,11.75 12,11.75 C11.3096441,11.75 10.75,11.1903559 10.75,10.5 C10.75,9.80964406 11.3096441,9.25 12,9.25 Z M17,9.25 C17.6903559,9.25 18.25,9.80964406 18.25,10.5 C18.25,11.1903559 17.6903559,11.75 17,11.75 C16.3096441,11.75 15.75,11.1903559 15.75,10.5 C15.75,9.80964406 16.3096441,9.25 17,9.25 Z" id="path-1"></path>
    </defs>
    <g id="Public/ic_public_comments" stroke="none" stroke-width="1" fill="none" fill-rule="evenodd">
        <mask id="mask-2" fill="white">
            <use xlink:href="#path-1"></use>
        </mask>
        <use id="形状结合" fill="#000000" fill-rule="nonzero" xlink:href="#path-1"></use>
    </g>
</svg>