<svg width="16.000000" height="16.000000" viewBox="0 0 16 16" fill="none" xmlns="http://www.w3.org/2000/svg" xmlns:xlink="http://www.w3.org/1999/xlink">
	<desc>
			Created with Pixso.
	</desc>
	<defs>
		<clipPath id="clip28_44564">
			<rect id="svg" width="16.000000" height="16.000000" fill="white" fill-opacity="0"/>
		</clipPath>
	</defs>
	<g clip-path="url(#clip28_44564)">
		<path id="path-1" d="M8 1.33C9.54 1.33 10.8 2.57 10.83 4.11L10.83 6L11 6C12.1 6 13 6.89 13 8L13 12.33C13 13.43 12.1 14.33 11 14.33L5 14.33C3.89 14.33 3 13.43 3 12.33L3 8C3 6.89 3.89 6 5 6L5.16 6L5.16 4.16C5.16 2.6 6.43 1.33 8 1.33ZM11 7L5 7C4.46 7 4.02 7.42 4 7.96L4 12.33C4 12.87 4.42 13.31 4.96 13.33L11 13.33C11.53 13.33 11.97 12.9 11.99 12.37L12 8C12 7.46 11.53 7.02 11 7ZM8 8.83C8.73 8.83 9.33 9.43 9.33 10.16C9.33 10.9 8.73 11.5 8 11.5C7.26 11.5 6.66 10.9 6.66 10.16C6.66 9.43 7.26 8.83 8 8.83ZM8 2.33C7 2.33 6.19 3.12 6.16 4.11L6.16 6L9.83 6L9.83 4.16C9.83 3.15 9.01 2.33 8 2.33Z" fill="#000000" fill-opacity="1.000000" fill-rule="nonzero"/>
		<path id="path-1" d="M10.83 4.11L10.83 6L11 6C12.1 6 13 6.89 13 8L13 12.33C13 13.43 12.1 14.33 11 14.33L5 14.33C3.89 14.33 3 13.43 3 12.33L3 8C3 6.89 3.89 6 5 6L5.16 6L5.16 4.16C5.16 2.6 6.43 1.33 8 1.33C9.54 1.33 10.8 2.57 10.83 4.11ZM5 7C4.46 7 4.02 7.42 4 7.96L4 12.33C4 12.87 4.42 13.31 4.96 13.33L11 13.33C11.53 13.33 11.97 12.9 11.99 12.37L12 8C12 7.46 11.53 7.02 11 7L5 7ZM9.33 10.16C9.33 10.9 8.73 11.5 8 11.5C7.26 11.5 6.66 10.9 6.66 10.16C6.66 9.43 7.26 8.83 8 8.83C8.73 8.83 9.33 9.43 9.33 10.16ZM6.16 4.11L6.16 6L9.83 6L9.83 4.16C9.83 3.15 9.01 2.33 8 2.33C7 2.33 6.19 3.12 6.16 4.11Z" stroke="#000000" stroke-opacity="0" stroke-width="0.666667"/>
	</g>
</svg>
