<svg width="24.000000" height="24.000000" viewBox="0 0 24 24" fill="none" xmlns="http://www.w3.org/2000/svg" xmlns:xlink="http://www.w3.org/1999/xlink">
	<desc>
			Created with Pixso.
	</desc>
	<defs/>
	<g opacity="0.000000"/>
	<path id="矢量 144" d="M16.29 2C18.03 2 19.45 3.44 19.45 5.23L19.45 8.05C18.97 7.85 18.46 7.7 17.95 7.61L17.95 5.23C17.95 4.29 17.21 3.53 16.29 3.53L6.09 3.53C5.18 3.53 4.44 4.29 4.44 5.23L4.44 18.76C4.44 19.7 5.18 20.46 6.09 20.46L9.99 20.46C10.39 21.03 10.86 21.55 11.39 22L6.09 21.99C4.36 21.99 2.94 20.55 2.94 18.76L2.94 5.23C2.94 3.44 4.36 2 6.09 2L16.29 2ZM15.25 6.5C15.25 6.08 14.91 5.75 14.5 5.75L7.5 5.75L7.39 5.75C7.03 5.8 6.75 6.12 6.75 6.5C6.75 6.91 7.08 7.25 7.5 7.25L14.5 7.25L14.6 7.24C14.96 7.19 15.25 6.87 15.25 6.5ZM11 8.75C11.41 8.75 11.75 9.08 11.75 9.5C11.75 9.87 11.46 10.19 11.1 10.24L11 10.25L7.5 10.25C7.08 10.25 6.75 9.91 6.75 9.5C6.75 9.12 7.03 8.8 7.39 8.75L7.5 8.75L11 8.75ZM22.75 15.5C22.75 12.04 19.95 9.25 16.5 9.25C13.04 9.25 10.25 12.04 10.25 15.5C10.25 18.95 13.04 21.75 16.5 21.75C19.95 21.75 22.75 18.95 22.75 15.5ZM16.5 10.75C13.87 10.75 11.75 12.87 11.75 15.5C11.75 18.12 13.87 20.25 16.5 20.25C19.12 20.25 21.25 18.12 21.25 15.5C21.25 12.87 19.12 10.75 16.5 10.75ZM19.6 14.69C19.82 14.4 19.79 13.98 19.53 13.72C19.24 13.42 18.76 13.42 18.47 13.71L15.97 16.19L14.52 14.75C14.23 14.54 13.73 14.49 13.46 14.76C13.17 15.05 13.17 15.53 13.47 15.82L15.44 17.78C15.73 17.99 16.23 18.04 16.5 17.78L19.6 14.69Z" fill="#000000" fill-opacity="0.901961" fill-rule="evenodd"/>
</svg>
