<?xml version="1.0" encoding="UTF-8"?>
<svg width="30px" height="30px" viewBox="0 0 30 30" version="1.1" xmlns="http://www.w3.org/2000/svg" xmlns:xlink="http://www.w3.org/1999/xlink">
    <title>ic_public_brightness_filled</title>
    <g id="ic_public_brightness_filled" stroke="none" stroke-width="1" fill="none" fill-rule="evenodd">
        <path d="M15,22.75 C15.5522847,22.75 16,23.1977153 16,23.75 L16,24.75 C16,25.3022847 15.5522847,25.75 15,25.75 C14.4477153,25.75 14,25.3022847 14,24.75 L14,23.75 C14,23.1977153 14.4477153,22.75 15,22.75 Z M9.44669914,20.5533009 C9.83722343,20.9438252 9.83722343,21.5769901 9.44669914,21.9675144 L8.56281566,22.8513979 C8.17229137,23.2419222 7.53912639,23.2419222 7.1486021,22.8513979 C6.75807781,22.4608736 6.75807781,21.8277086 7.1486021,21.4371843 L8.03248558,20.5533009 C8.42300987,20.1627766 9.05617485,20.1627766 9.44669914,20.5533009 Z M21.9675144,20.5533009 L22.8513979,21.4371843 C23.2419222,21.8277086 23.2419222,22.4608736 22.8513979,22.8513979 C22.4608736,23.2419222 21.8277086,23.2419222 21.4371843,22.8513979 L20.5533009,21.9675144 C20.1627766,21.5769901 20.1627766,20.9438252 20.5533009,20.5533009 C20.9438252,20.1627766 21.5769901,20.1627766 21.9675144,20.5533009 Z M15,8.25 C18.7279221,8.25 21.75,11.2720779 21.75,15 C21.75,18.7279221 18.7279221,21.75 15,21.75 C11.2720779,21.75 8.25,18.7279221 8.25,15 C8.25,11.2720779 11.2720779,8.25 15,8.25 Z M25,14 C25.5522847,14 26,14.4477153 26,15 C26,15.5522847 25.5522847,16 25,16 L23.75,16 C23.1977153,16 22.75,15.5522847 22.75,15 C22.75,14.4477153 23.1977153,14 23.75,14 L25,14 Z M6.25,14 C6.80228475,14 7.25,14.4477153 7.25,15 C7.25,15.5522847 6.80228475,16 6.25,16 L5,16 C4.44771525,16 4,15.5522847 4,15 C4,14.4477153 4.44771525,14 5,14 L6.25,14 Z M22.8513979,7.1486021 C23.2419222,7.53912639 23.2419222,8.17229137 22.8513979,8.56281566 L21.9675144,9.44669914 C21.5769901,9.83722343 20.9438252,9.83722343 20.5533009,9.44669914 C20.1627766,9.05617485 20.1627766,8.42300987 20.5533009,8.03248558 L21.4371843,7.1486021 C21.8277086,6.75807781 22.4608736,6.75807781 22.8513979,7.1486021 Z M8.56281566,7.1486021 L9.44669914,8.03248558 C9.83722343,8.42300987 9.83722343,9.05617485 9.44669914,9.44669914 C9.05617485,9.83722343 8.42300987,9.83722343 8.03248558,9.44669914 L7.1486021,8.56281566 C6.75807781,8.17229137 6.75807781,7.53912639 7.1486021,7.1486021 C7.53912639,6.75807781 8.17229137,6.75807781 8.56281566,7.1486021 Z M15,4.25 C15.5522847,4.25 16,4.69771525 16,5.25 L16,6.25 C16,6.80228475 15.5522847,7.25 15,7.25 C14.4477153,7.25 14,6.80228475 14,6.25 L14,5.25 C14,4.69771525 14.4477153,4.25 15,4.25 Z" id="形状" fill="#FFFFFF" fill-rule="nonzero"></path>
    </g>
</svg>