<?xml version="1.0" encoding="UTF-8"?>
<svg width="24px" height="24px" viewBox="0 0 24 24" version="1.1" xmlns="http://www.w3.org/2000/svg" xmlns:xlink="http://www.w3.org/1999/xlink">
    <title>ic_public_back</title>
    <g id="ic_public_back" stroke="none" stroke-width="1" fill="none" fill-rule="evenodd">
        <g id="编组" transform="translate(2.000000, 3.000000)" fill="#000000" fill-rule="nonzero">
            <path d="M3.31079777,10.7499686 L9.2803301,16.7196699 L9.3140714,16.7556673 C9.5727547,17.0502619 9.5615076,17.4991526 9.2803301,17.7803301 C8.9991526,18.0615076 8.5502619,18.0727547 8.2556673,17.8140714 L8.2196699,17.7803301 L1.18929777,10.7499686 L3.31079777,10.7499686 Z M9.2803301,0.21966991 C9.5615076,0.5008474 9.5727547,0.94973814 9.3140714,1.24433269 L9.2803301,1.28033009 L2.3105,8.25 L19,8.25 C19.3994202,8.25 19.7259152,8.56223 19.7487268,8.9559318 L19.75,9 C19.75,9.3994202 19.43777,9.7259152 19.0440682,9.7487268 L19,9.75 L1.10355339,9.75 C0.8383369,9.75 0.58398299,9.6446432 0.39644661,9.4571068 C0.01893979,9.0796 0.00635623,8.4753589 0.35869593,8.0827365 L0.39644661,8.0428932 L8.2196699,0.21966991 C8.5125631,-0.0732233 8.9874369,-0.0732233 9.2803301,0.21966991 Z" id="path-1"></path>
        </g>
    </g>
</svg>