<?xml version="1.0" encoding="UTF-8"?>
<svg xmlns="http://www.w3.org/2000/svg" xmlns:xlink="http://www.w3.org/1999/xlink" width="24" height="24" viewBox="0 0 24 24" version="1.1">
    <title>Public/ic_public_play_norm</title>
    <defs>
        <path d="M12,1 C18.0751322,1 23,5.92486775 23,12 C23,18.0751322 18.0751322,23 12,23 C5.92486775,23 1,18.0751322 1,12 C1,5.92486775 5.92486775,1 12,1 Z M12,2.5 C6.75329488,2.5 2.5,6.75329488 2.5,12 C2.5,17.2467051 6.75329488,21.5 12,21.5 C17.2467051,21.5 21.5,17.2467051 21.5,12 C21.5,6.75329488 17.2467051,2.5 12,2.5 Z M16.1490452,13.0797236 L10.8798388,16.1534274 C10.2835239,16.5012777 9.51812673,16.2998574 9.17027637,15.7035425 C9.0587605,15.5123725 9,15.295022 9,15.0737038 L9,8.92629625 C9,8.23594031 9.55964406,7.67629625 10.25,7.67629625 C10.4713183,7.67629625 10.6886687,7.73505675 10.8798388,7.84657262 L16.1490452,10.9202764 C16.7453601,11.2681267 16.9467804,12.0335239 16.5989301,12.6298388 C16.4902816,12.8160933 16.3352998,12.9710751 16.1490452,13.0797236 Z" id="_path-1"/>
    </defs>
    <g id="_Public/ic_public_play_norm" stroke="none" stroke-width="1" fill="none" fill-rule="evenodd">
        <mask id="_mask-2" fill="white">
            <use xlink:href="#_path-1"/>
        </mask>
        <use id="_形状结合" fill="#ffffff" fill-rule="nonzero" xlink:href="#_path-1"/>
    </g>
</svg>