<?xml version="1.0" encoding="UTF-8"?>
<svg width="30px" height="30px" viewBox="0 0 30 30" version="1.1" xmlns="http://www.w3.org/2000/svg" xmlns:xlink="http://www.w3.org/1999/xlink">
    <title>icon_camera_setting</title>
    <defs>
        <path d="M16.70825,5 C17.2403697,5 17.7141584,5.33687436 17.8889143,5.8394774 L18.5345139,7.69622558 L19.6365526,8.38760147 L21.6269318,8.14298817 C22.1184463,8.08258167 22.599281,8.31803123 22.8529462,8.74333154 L24.465253,11.4464621 C24.7338645,11.8968103 24.6928445,12.4669371 24.3625299,12.8741882 L23.23464,14.2648046 L23.23464,15.8118425 L24.3337788,17.0806534 C24.682584,17.4833022 24.7378741,18.0627704 24.4715092,18.5241184 L22.8583026,21.3181911 C22.6056824,21.7557249 22.1145129,21.9981707 21.6135605,21.9326025 L19.6288399,21.6728366 L18.4599896,22.3872254 L17.889304,24.1374927 C17.7215788,24.6518995 17.2419403,25 16.70088,25 L13.29912,25 C12.7580597,25 12.2784212,24.6518995 12.1106962,24.1374932 L11.5400104,22.3872254 L10.3711601,21.6728366 L8.38644267,21.9326021 C7.88548754,21.9981708 7.39431828,21.755725 7.14169569,21.3181882 L5.52849263,18.5241201 C5.26212489,18.0627742 5.3174154,17.4833042 5.66622077,17.0806539 L6.76536025,15.8118427 L6.76536025,14.2648041 L5.63746851,12.8741876 C5.30715611,12.4669327 5.26613777,11.8968087 5.53474946,11.4464594 L7.14705025,8.74333534 C7.40072432,8.3180296 7.88155587,8.08258174 8.37306732,8.14298809 L10.3634473,8.38760146 L11.4658691,7.69598467 L12.1110824,5.83961616 C12.2858001,5.33694132 12.7596238,5 13.2917975,5 L16.70825,5 Z M16.5304936,6.5 L13.4695743,6.5 L12.8538794,8.27144002 C12.7605166,8.54005599 12.5783534,8.76880748 12.3374599,8.91993356 L11.0853746,9.70544346 C10.8420901,9.85806659 10.5536693,9.92226323 10.2686124,9.88723191 L8.35182869,9.65166336 L6.91243375,12.0648999 L7.9861789,13.3887571 C8.16679172,13.6114395 8.26536025,13.8894453 8.26536025,14.176165 L8.26536025,15.9050675 C8.26536025,16.2057106 8.15700466,16.4962836 7.96015466,16.7235211 L6.91652338,17.9282554 L8.35726902,20.4236272 L10.2640167,20.1740667 C10.547158,20.1370108 10.8344499,20.198016 11.078104,20.3469334 L12.4009675,21.1554535 C12.6549776,21.3106996 12.8452419,21.5515036 12.9375213,21.8345293 L13.4805585,23.5 L16.5194415,23.5 L17.0624765,21.8345358 C17.1547581,21.5515036 17.3450224,21.3106996 17.5990285,21.1554559 L18.9218986,20.3469318 C19.1655501,20.198016 19.452842,20.1370108 19.7359895,20.1740675 L21.642731,20.4236272 L23.0834771,17.928256 L22.0398456,16.7235209 C21.8429959,16.4962837 21.73464,16.2057107 21.73464,15.9050675 L21.73464,14.176165 C21.73464,13.8894447 21.8332092,13.6114386 22.0138201,13.3887593 L23.0875663,12.0648986 L21.6481702,9.65166346 L19.7313836,9.8872324 C19.4463307,9.92226323 19.1579099,9.85806659 18.9146178,9.70543871 L17.6629375,8.92018353 C17.4220858,8.76908246 17.2399422,8.54038487 17.1465682,8.27183385 L16.5304936,6.5 Z M15,11.25 C17.0710684,11.25 18.75,12.9289319 18.75,15 C18.75,17.0710686 17.0710686,18.75 15,18.75 C12.9289319,18.75 11.25,17.0710684 11.25,15 C11.25,12.9289322 12.9289322,11.25 15,11.25 Z M15,12.25 C13.4812169,12.25 12.25,13.4812169 12.25,15 C12.25,16.5187836 13.4812166,17.75 15,17.75 C16.5187839,17.75 17.75,16.5187839 17.75,15 C17.75,13.4812166 16.5187836,12.25 15,12.25 Z" id="path-1"></path>
    </defs>
    <g id="icon_camera_setting" stroke="none" stroke-width="1" fill="none" fill-rule="evenodd">
        <mask id="mask-2" fill="white">
            <use xlink:href="#path-1"></use>
        </mask>
        <use id="Combined-Shape" fill="#FFFFFF" xlink:href="#path-1"></use>
    </g>
</svg>