<?xml version="1.0" encoding="UTF-8"?>
<svg width="24px" height="24px" viewBox="0 0 24 24" version="1.1" xmlns="http://www.w3.org/2000/svg" xmlns:xlink="http://www.w3.org/1999/xlink">
    <title>Public/ic_public_camera</title>
    <defs>
        <path d="M15.1205992,3 C15.7758689,3 16.3895761,3.32098956 16.7633392,3.85920838 L17.9027778,5.5 L20,5.5 C21.6568542,5.5 23,6.84314575 23,8.5 L23,17.5 C23,19.1568542 21.6568542,20.5 20,20.5 L4,20.5 C2.34314575,20.5 1,19.1568542 1,17.5 L1,8.5 C1,6.84314575 2.34314575,5.5 4,5.5 L6.09722222,5.5 L7.23666085,3.85920838 C7.61042392,3.32098956 8.22413111,3 8.87940078,3 L15.1205992,3 Z M15.1205992,4.5 L8.87940078,4.5 C8.71558336,4.5 8.56215656,4.58024739 8.4687158,4.7148021 L6.88177281,7 L4,7 C3.17157288,7 2.5,7.67157288 2.5,8.5 L2.5,17.5 C2.5,18.3284271 3.17157288,19 4,19 L20,19 C20.8284271,19 21.5,18.3284271 21.5,17.5 L21.5,8.5 C21.5,7.67157288 20.8284271,7 20,7 L17.1182272,7 L15.5312842,4.7148021 C15.4378434,4.58024739 15.2844166,4.5 15.1205992,4.5 Z M12,7.75 C14.6233526,7.75 16.75,9.87664744 16.75,12.5 C16.75,15.1233526 14.6233526,17.25 12,17.25 C9.37664744,17.25 7.25,15.1233526 7.25,12.5 C7.25,9.87664744 9.37664744,7.75 12,7.75 Z M12,9.25 C10.2050746,9.25 8.75,10.7050746 8.75,12.5 C8.75,14.2949254 10.2050746,15.75 12,15.75 C13.7949254,15.75 15.25,14.2949254 15.25,12.5 C15.25,10.7050746 13.7949254,9.25 12,9.25 Z" id="path-1"></path>
    </defs>
    <g id="Public/ic_public_camera" stroke="none" stroke-width="1" fill="none" fill-rule="evenodd">
        <mask id="mask-2" fill="white">
            <use xlink:href="#path-1"></use>
        </mask>
        <use id="合并形状" fill="#000000" fill-rule="nonzero" xlink:href="#path-1"></use>
    </g>
</svg>