<?xml version="1.0" standalone="no"?>
<svg xmlns="http://www.w3.org/2000/svg" width="24" height="24"><rect width="24" height="24" opacity="0"></rect><g><path d="M15.72 8.95Q15.55 8.71 15.31 8.64Q15.07 8.57 14.84 8.68Q14.62 8.78 14.52 9.02L13.75 11.04L14.5 12.77L15.19 10.97L16.42 13.82L14.93 13.82L15.48 15.12L16.97 15.12L17.98 17.42Q18.1 17.66 18.34 17.76Q18.58 17.86 18.84 17.76Q19.08 17.66 19.19 17.41Q19.3 17.16 19.18 16.9L15.72 8.95ZM13.54 13.13Q12.1 9.72 10.66 6.34Q10.54 6.14 10.34 6.04Q10.15 5.93 9.94 5.95Q9.74 5.98 9.58 6.1Q9.41 6.22 9.31 6.41L4.92 16.78Q4.8 17.06 4.91 17.35Q5.02 17.64 5.33 17.76Q5.66 17.86 5.92 17.76Q6.17 17.66 6.31 17.35L7.56 14.4L12.46 14.4L13.7 17.35Q13.82 17.64 14.09 17.75Q14.35 17.86 14.69 17.76Q14.98 17.64 15.1 17.35Q15.22 17.06 15.1 16.78ZM10.01 8.62L11.81 12.89L8.21 12.89Z" fill="rgba(0,0,0,0.9019607843137255)"></path><path d="M19.01 22.01Q19.8 22.01 20.5 21.6Q21.19 21.19 21.6 20.5Q22.01 19.8 22.01 19.01L22.01 4.99Q22.01 4.2 21.6 3.5Q21.19 2.81 20.5 2.4Q19.8 1.99 19.01 1.99L4.99 1.99Q4.2 1.99 3.5 2.4Q2.81 2.81 2.4 3.5Q1.99 4.2 1.99 4.99L1.99 19.01Q1.99 19.8 2.4 20.5Q2.81 21.19 3.5 21.6Q4.2 22.01 4.99 22.01L19.01 22.01ZM19.01 3.5Q19.63 3.5 20.06 3.94Q20.5 4.37 20.5 4.99L20.5 19.01Q20.5 19.61 20.06 20.05Q19.63 20.5 19.01 20.5L4.99 20.5Q4.39 20.5 3.95 20.05Q3.5 19.61 3.5 19.01L3.5 4.99Q3.5 4.37 3.95 3.94Q4.39 3.5 4.99 3.5L19.01 3.5Z" fill="rgba(0,0,0,0.9019607843137255)"></path></g></svg>