<?xml version="1.0" encoding="UTF-8"?>
<svg width="30px" height="30px" viewBox="0 0 30 30" version="1.1" xmlns="http://www.w3.org/2000/svg" xmlns:xlink="http://www.w3.org/1999/xlink">
    <title>icon_camera_setting_timer</title>
    <defs>
        <path d="M5.61056175,7.24276622 C6.00235756,7.63201485 6.00442246,8.26517646 5.61517383,8.65697226 C3.95025099,10.3327901 3,12.589974 3,15 C3,19.9705627 7.02943725,24 12,24 C13.4870293,24 14.889827,23.6393613 16.1257011,23.0007758 L19.5492057,23.0006329 C17.5792514,24.8601055 14.922744,26 12,26 C5.92486775,26 1,21.0751322 1,15 C1,12.0563856 2.16285917,9.29418173 4.19635571,7.24737831 C4.58560433,6.8555825 5.21876594,6.8535176 5.61056175,7.24276622 Z M16.824829,15 C17.3456076,15 17.8203577,15.1213333 18.2490794,15.364 C18.6778012,15.6066667 19.0184114,15.9573333 19.27091,16.416 C19.5234087,16.8746667 19.6496581,17.4133333 19.6496581,18.032 C19.6496581,18.656 19.5234087,19.1973333 19.27091,19.656 C19.0184114,20.1146667 18.6778012,20.4653333 18.2490794,20.708 C17.8203577,20.9506667 17.3456076,21.072 16.824829,21.072 C16.2987901,21.072 15.8214098,20.9506667 15.3926881,20.708 C14.9639663,20.4653333 14.6246712,20.1146667 14.3748027,19.656 C14.1249342,19.1973333 14,18.656 14,18.032 C14,17.4133333 14.1249342,16.8746667 14.3748027,16.416 C14.6246712,15.9573333 14.9652814,15.6066667 15.3966334,15.364 C15.8279853,15.1213333 16.3040505,15 16.824829,15 Z M24.3840084,15.112 L24.3840084,16.304 L21.8669122,16.304 L21.8669122,17.584 L24.1236191,17.584 L24.1236191,18.768 L21.8669122,18.768 L21.8669122,20.968 L20.5176223,20.968 L20.5176223,15.112 L24.3840084,15.112 Z M29,15.112 L29,16.304 L26.4829037,16.304 L26.4829037,17.584 L28.7396107,17.584 L28.7396107,18.768 L26.4829037,18.768 L26.4829037,20.968 L25.1336139,20.968 L25.1336139,15.112 L29,15.112 Z M16.824829,16.256 C16.5512888,16.256 16.3093109,16.3293333 16.0988953,16.476 C15.8884797,16.6226667 15.7240926,16.8306667 15.6057338,17.1 C15.4873751,17.3693333 15.4281957,17.68 15.4281957,18.032 C15.4281957,18.3893333 15.4873751,18.704 15.6057338,18.976 C15.7240926,19.248 15.8884797,19.4573333 16.0988953,19.604 C16.3093109,19.7506667 16.5512888,19.824 16.824829,19.824 C17.0983693,19.824 17.3416623,19.7506667 17.554708,19.604 C17.7677538,19.4573333 17.9334561,19.248 18.0518148,18.976 C18.1701736,18.704 18.229353,18.3893333 18.229353,18.032 C18.229353,17.68 18.1701736,17.3693333 18.0518148,17.1 C17.9334561,16.8306667 17.7677538,16.6226667 17.554708,16.476 C17.3416623,16.3293333 17.0983693,16.256 16.824829,16.256 Z M7.5,9.75 C7.68934269,9.75 7.86825765,9.8207715 8.00529133,9.94575659 L12.7616512,14.0087059 C12.8044749,14.0416766 12.8452913,14.0775243 12.8838835,14.1161165 C13.3720143,14.6042473 13.3720143,15.3957527 12.8838835,15.8838835 C12.3957527,16.3720143 11.6042473,16.3720143 11.1161165,15.8838835 C11.0771722,15.8449391 11.0410228,15.80373 11.0159631,15.7705501 L6.96211432,11.0226657 C6.82711422,10.8837511 6.75,10.6976329 6.75,10.5 C6.75,10.0857864 7.08578644,9.75 7.5,9.75 Z M12,4 C17.3923466,4 21.8784561,7.88006227 22.8187322,13.0005906 L20.7769761,12.9999671 C19.9392772,9.30829752 16.832227,6.47855999 13,6.05492878 L13,8.84902406 C13,9.40130881 12.5522847,9.84902406 12,9.84902406 C11.4477153,9.84902406 11,9.40130881 11,8.84902406 L11,5 C11,4.44771525 11.4477153,4 12,4 Z" id="path-1"></path>
    </defs>
    <g id="icon_camera_setting_timer" stroke="none" stroke-width="1" fill="none" fill-rule="evenodd">
        <mask id="mask-2" fill="white">
            <use xlink:href="#path-1"></use>
        </mask>
        <use id="形状结合" fill="#FFFFFF" fill-rule="nonzero" xlink:href="#path-1"></use>
    </g>
</svg>