<?xml version="1.0" encoding="UTF-8"?>
<svg width="24px" height="24px" viewBox="0 0 24 24" version="1.1" xmlns="http://www.w3.org/2000/svg" xmlns:xlink="http://www.w3.org/1999/xlink">
    <title>Public/ic_public_albums</title>
    <defs>
        <path d="M17,5 C18.9329966,5 20.5,6.56700338 20.5,8.5 L20.5,17.5 C20.5,19.4329966 18.9329966,21 17,21 L4.5,21 C2.56700338,21 1,19.4329966 1,17.5 L1,8.5 C1,6.56700338 2.56700338,5 4.5,5 L17,5 Z M17,6.5 L4.5,6.5 C3.41627143,6.5 2.53386428,7.36195944 2.50095171,8.43770517 L2.5,17.5 C2.5,18.5837286 3.36195944,19.4661357 4.43770517,19.4990483 L17,19.5 C18.0837286,19.5 18.9661357,18.6380406 18.9990483,17.5622948 L19,17.5 L19,8.5 C19,7.41627143 18.1380406,6.53386428 17.0622948,6.50095171 L17,6.5 Z M18.5,2.5 C20.9852814,2.5 23,4.51471863 23,7 L23,14.5 C23,15.7630957 22.414552,16.8894527 21.5002098,17.6225173 L21.5,7.5 C21.5,5.6314366 20.0357224,4.10487355 18.1920352,4.00517886 L18,4 L4.5,4 C4.45850636,4 4.41718136,4.00072206 4.37603688,4.00215429 C5.10806015,3.08674152 6.23550966,2.5 7.5,2.5 L18.5,2.5 Z" id="path-1"></path>
    </defs>
    <g id="Public/ic_public_albums" stroke="none" stroke-width="1" fill="none" fill-rule="evenodd">
        <mask id="mask-2" fill="white">
            <use xlink:href="#path-1"></use>
        </mask>
        <use id="形状结合" fill="#000000" fill-rule="nonzero" xlink:href="#path-1"></use>
    </g>
</svg>