<?xml version="1.0" encoding="UTF-8"?>
<svg width="30px" height="30px" viewBox="0 0 30 30" version="1.1" xmlns="http://www.w3.org/2000/svg" xmlns:xlink="http://www.w3.org/1999/xlink">
    <title>icon_camera_setting_timer_on</title>
    <defs>
        <path d="M15,4 C21.0751322,4 26,8.92486775 26,15 C26,21.0751322 21.0751322,26 15,26 C8.92486775,26 4,21.0751322 4,15 C4,12.0563856 5.16285917,9.29418173 7.19635571,7.24737831 C7.58560433,6.8555825 8.21876594,6.8535176 8.61056175,7.24276622 C9.00235756,7.63201485 9.00442246,8.26517646 8.61517383,8.65697226 C6.95025099,10.3327901 6,12.589974 6,15 C6,19.9705627 10.0294373,24 15,24 C19.9705627,24 24,19.9705627 24,15 C24,10.3674463 20.4999505,6.55237307 16,6.05492878 L16,8.84902406 C16,9.40130881 15.5522847,9.84902406 15,9.84902406 C14.4477153,9.84902406 14,9.40130881 14,8.84902406 L14,5 C14,4.44771525 14.4477153,4 15,4 Z M10.5,9.75 C10.6893427,9.75 10.8682576,9.8207715 11.0052913,9.94575659 L15.7616512,14.0087059 C15.8044749,14.0416766 15.8452913,14.0775243 15.8838835,14.1161165 C16.3720143,14.6042473 16.3720143,15.3957527 15.8838835,15.8838835 C15.3957527,16.3720143 14.6042473,16.3720143 14.1161165,15.8838835 C14.0771722,15.8449391 14.0410228,15.80373 14.0159631,15.7705501 L9.96211432,11.0226657 C9.82711422,10.8837511 9.75,10.6976329 9.75,10.5 C9.75,10.0857864 10.0857864,9.75 10.5,9.75 Z" id="path-1"></path>
    </defs>
    <g id="icon_camera_setting_timer_on" stroke="none" stroke-width="1" fill="none" fill-rule="evenodd">
        <mask id="mask-2" fill="white">
            <use xlink:href="#path-1"></use>
        </mask>
        <use id="Combined-Shape" fill="#FFFFFF" fill-rule="nonzero" xlink:href="#path-1"></use>
    </g>
</svg>