<svg width="19.000000" height="13.000000" viewBox="0 0 19 13" fill="none" xmlns="http://www.w3.org/2000/svg" xmlns:xlink="http://www.w3.org/1999/xlink">
	<desc>
			Created with Pixso.
	</desc>
	<defs/>
	<path id="path-1" d="M7.98 11.51C7.31 12.18 6.24 12.19 5.55 11.55L-0.19 5.81C-0.49 5.52 -0.49 5.04 -0.19 4.75C0.09 4.47 0.54 4.46 0.84 4.72L6.21 10.1C6.5 10.38 6.95 10.39 7.24 10.13L17.62 -0.25C17.91 -0.54 18.39 -0.54 18.68 -0.25C18.96 0.03 18.97 0.48 18.71 0.78L7.98 11.51Z" fill="#FFFFFF" fill-opacity="1.000000" fill-rule="nonzero"/>
	<path id="path-1" d="M5.55 11.55L-0.19 5.81C-0.49 5.52 -0.49 5.04 -0.19 4.75C0.09 4.47 0.54 4.46 0.84 4.72L6.21 10.1C6.5 10.38 6.95 10.39 7.24 10.13L17.62 -0.25C17.91 -0.54 18.39 -0.54 18.68 -0.25C18.96 0.03 18.97 0.48 18.71 0.78L7.98 11.51C7.31 12.18 6.24 12.19 5.55 11.55Z" stroke="#000000" stroke-opacity="0" stroke-width="1.000000"/>
</svg>
