<?xml version="1.0" encoding="UTF-8"?>
<svg width="24px" height="24px" viewBox="0 0 24 24" version="1.1" xmlns="http://www.w3.org/2000/svg" xmlns:xlink="http://www.w3.org/1999/xlink">
    <title>防抖备份 2</title>
    <g id="防抖备份-2" stroke="none" stroke-width="1" fill="none" fill-rule="evenodd">
        <path d="M12.3649406,2.19212833 C13.1717566,2.19212833 13.8723031,2.64712213 14.2239893,3.3145189 L14.2239893,3.3145189 L14.2694043,3.4067962 L14.3470876,3.37612482 C14.5262643,3.31095467 14.716821,3.26948352 14.9149672,3.25550187 L14.9149672,3.25550187 L15.0649406,3.25022914 C16.2247386,3.25022914 17.1649406,4.19043117 17.1649406,5.35022914 L17.1649406,5.35022914 L17.1654043,5.6287962 L17.3239139,5.588078 C17.4187184,5.56781624 17.5158941,5.55395304 17.6149672,5.54696221 L17.6149672,5.54696221 L17.7649406,5.54168948 C18.9247386,5.54168948 19.8650003,6.48189151 19.8650003,7.64168948 L19.8650003,7.64168948 L19.8650003,14.6369746 C19.8650003,14.6798574 19.8636454,14.7226171 19.8610657,14.7652075 L19.8610657,14.7652075 L19.8474043,14.9127962 L19.8576342,15.0793126 C19.953865,17.0926751 19.1036149,19.0496914 17.519052,20.3498162 L17.519052,20.3498162 L17.3082229,20.515623 C14.5588939,22.5873911 10.6679536,22.1200103 8.47829731,19.4581846 L8.47829731,19.4581846 L8.32031595,19.2575419 L4.3276653,13.9591155 C3.62968145,13.0328597 3.81473247,11.7161533 4.74098832,11.0181694 C5.57902932,10.3866602 6.73669087,10.4779982 7.46651355,11.1870959 L7.46651355,11.1870959 L7.56540435,11.2897962 L7.56494062,6.54110954 C7.56494062,5.43173757 8.42516327,4.52328136 9.5149672,4.44638227 L9.5149672,4.44638227 L9.66494062,4.44110954 C9.86664462,4.44110954 10.0617068,4.46954665 10.2463366,4.5226304 L10.2463366,4.5226304 L10.2654043,4.5277962 L10.2649406,4.29212833 C10.2649406,3.18275635 11.1251633,2.27430014 12.2149672,2.19740106 L12.2149672,2.19740106 Z M15.6649406,5.35022914 C15.6649406,5.01885829 15.3963115,4.75022914 15.0649406,4.75022914 C14.7335698,4.75022914 14.4649406,5.01885829 14.4649406,5.35022914 L14.4649406,5.35022914 L14.4649406,10.5572869 C14.4649406,10.9715005 14.1291542,11.3072869 13.7149406,11.3072869 C13.3007271,11.3072869 12.9649406,10.9715005 12.9649406,10.5572869 L12.9649406,4.29212833 C12.9649406,3.96075748 12.6963115,3.69212833 12.3649406,3.69212833 C12.0335698,3.69212833 11.7649406,3.96075748 11.7649406,4.29212833 L11.7649406,4.29212833 L11.7649406,10.5572869 C11.7649406,10.9715005 11.4291542,11.3072869 11.0149406,11.3072869 C10.6007271,11.3072869 10.2649406,10.9715005 10.2649406,10.5572869 L10.2649406,6.54110954 L10.2570876,6.44378643 C10.2105874,6.15869915 9.96317439,5.94110954 9.66494062,5.94110954 C9.33356977,5.94110954 9.06494062,6.20973869 9.06494062,6.54113296 L9.06494062,6.54113296 L9.06472276,13.5171518 C9.06470028,14.2369998 8.14906188,14.543402 7.71579029,13.9685482 L7.71579029,13.9685482 L6.48398118,12.334215 C6.28455722,12.0695704 5.90835538,12.0166987 5.64371086,12.2161227 C5.37906633,12.4155466 5.32619461,12.7917485 5.52561856,13.056393 L5.52561856,13.056393 L9.50822735,18.341793 L9.64641746,18.5173054 C11.3163349,20.5471244 14.2985751,20.9053518 16.4055004,19.3176698 C17.7789158,18.282727 18.4947589,16.630837 18.3455645,14.948971 L18.3455645,14.948971 L18.355,14.747052 C18.3615829,14.7112553 18.3649985,14.6745191 18.3649985,14.6369746 L18.3649985,14.6369746 L18.3649985,7.64168948 C18.3649985,7.31031863 18.0963115,7.04168948 17.7649406,7.04168948 C17.4335698,7.04168948 17.1649406,7.31031863 17.1649406,7.64168948 L17.1649406,7.64168948 L17.1649406,10.5572869 C17.1649406,10.9715005 16.8291542,11.3072869 16.4149406,11.3072869 C16.0007271,11.3072869 15.6649406,10.9715005 15.6649406,10.5572869 Z M1.81146973,7.72914388 C2.16765812,7.59761933 2.55976249,7.7536078 2.73315684,8.07981643 L2.77483234,8.17291463 L3.43345313,9.95655935 C3.482982,10.090691 3.49288777,10.2354455 3.46317045,10.3738263 L3.43345313,10.4761512 L2.8710053,11.9991566 L3.43345313,13.5238488 C3.482982,13.6579805 3.49288777,13.8027349 3.46317045,13.9411157 L3.43345313,14.0434406 L2.77483234,15.8270854 C2.63135101,16.2156545 2.20003888,16.4143375 1.81146973,16.2708561 C1.45528135,16.1393316 1.25865013,15.7659492 1.33886895,15.405335 L1.36769898,15.3074935 L1.9310053,13.7831566 L1.36769898,12.2597959 C1.31817011,12.1256642 1.30826433,11.9809098 1.33798166,11.842529 L1.36769898,11.7402041 L1.9310053,10.2161566 L1.36769898,8.69250649 C1.23617443,8.3363181 1.3921629,7.94421374 1.71837153,7.77081938 L1.81146973,7.72914388 Z M22.1885303,7.72914388 C21.8323419,7.59761933 21.4402375,7.7536078 21.2668432,8.07981643 L21.2251677,8.17291463 L20.5665469,9.95655935 C20.517018,10.090691 20.5071122,10.2354455 20.5368295,10.3738263 L20.5665469,10.4761512 L21.1290464,11.9991566 L20.5665469,13.5238488 C20.517018,13.6579805 20.5071122,13.8027349 20.5368295,13.9411157 L20.5665469,14.0434406 L21.2251677,15.8270854 C21.368649,16.2156545 21.7999611,16.4143375 22.1885303,16.2708561 C22.5447187,16.1393316 22.7413499,15.7659492 22.6611311,15.405335 L22.632301,15.3074935 L22.0690464,13.7831566 L22.632301,12.2597959 C22.6818299,12.1256642 22.6917357,11.9809098 22.6620183,11.842529 L22.632301,11.7402041 L22.0690464,10.2161566 L22.632301,8.69250649 C22.7638256,8.3363181 22.6078371,7.94421374 22.2816285,7.77081938 L22.1885303,7.72914388 Z" id="形状结合" fill="#FFFFFF" fill-rule="nonzero"></path>
    </g>
</svg>