<?xml version="1.0" encoding="UTF-8"?>
<svg width="44px" height="44px" viewBox="0 0 44 44" version="1.1" xmlns="http://www.w3.org/2000/svg" xmlns:xlink="http://www.w3.org/1999/xlink">
    <title>切换镜头</title>
    <defs>
        <path d="M2.49961846,8.33542532 L2.49874155,10.0983654 C1.85859347,10.577226 1.5,11.1002844 1.5,11.625 C1.5,12.999785 3.96163709,14.3631941 7.49929698,14.9500937 L7.5,13.5994198 C7.5,13.4981676 7.58208113,13.4160865 7.68333333,13.4160865 C7.71424594,13.4160865 7.74465665,13.423903 7.77173788,13.4388093 L12.1452183,15.8460955 C12.2339211,15.8949199 12.2662488,16.0064078 12.2174243,16.0951105 C12.1985484,16.1294037 12.1691917,16.1567548 12.1336507,16.1731608 L7.7601702,18.1919942 C7.66823975,18.2344301 7.55931435,18.1943068 7.51687852,18.1023763 C7.50575873,18.0782871 7.5,18.0520713 7.5,18.0255394 L7.49890704,16.474871 C3.14691265,15.8101281 0,13.9949926 0,11.625 C0,10.3306363 0.938649243,9.20177335 2.49961846,8.33542532 Z M19.9993943,8.3348775 C21.560955,9.20129744 22.5,10.3303635 22.5,11.625 C22.5,13.8884012 19.6698656,15.643491 15.5188838,16.3856416 C15.1111359,16.4585426 14.721493,16.1870955 14.6485921,15.7793476 C14.5756912,15.3715997 14.8471383,14.9819569 15.2548862,14.909056 C18.7609435,14.2822108 21,12.8936743 21,11.625 C21,11.1000124 20.6410346,10.5766837 20.0002627,10.0976208 L19.9993943,8.3348775 Z M13.3146174,0 C13.8996381,0 14.4312797,0.340123092 14.676492,0.871273004 L14.9667519,1.5 L17,1.5 C17.8284271,1.5 18.5,2.17157288 18.5,3 L18.5,10.5 C18.5,11.3284271 17.8284271,12 17,12 L5.5,12 C4.67157288,12 4,11.3284271 4,10.5 L4,3 C4,2.17157288 4.67157288,1.5 5.5,1.5 L7.55706319,1.5 L7.88025013,0.840181489 C8.13211725,0.325969548 8.65475299,0 9.2273357,0 L13.3146174,0 Z M13.3146174,1.5 L9.2273357,1.5 L8.49261789,3 L5.5,3 L5.5,10.5 L17,10.5 L17,3 L14.0071118,3 L13.3146174,1.5 Z M11.375,3.75 C12.8247475,3.75 14,4.92525253 14,6.375 C14,7.82474747 12.8247475,9 11.375,9 C9.92525253,9 8.75,7.82474747 8.75,6.375 C8.75,4.92525253 9.92525253,3.75 11.375,3.75 Z M11.375,4.75 C10.4775373,4.75 9.75,5.47753728 9.75,6.375 C9.75,7.27246272 10.4775373,8 11.375,8 C12.2724627,8 13,7.27246272 13,6.375 C13,5.47753728 12.2724627,4.75 11.375,4.75 Z" id="path-1"></path>
    </defs>
    <g id="页面-1" stroke="none" stroke-width="1" fill="none" fill-rule="evenodd">
        <g id="拍照（手机）" transform="translate(-264.000000, -636.000000)">
            <g id="切换镜头" transform="translate(264.000000, 636.000000)">
                <path d="M22,43 C33.5979797,43 43,33.5979797 43,22 C43,10.4020203 33.5979797,1 22,1 C10.4020203,1 1,10.4020203 1,22 C1,33.5979797 10.4020203,43 22,43 Z M22,44 C9.8497355,44 0,34.1502645 0,22 C0,9.8497355 9.8497355,0 22,0 C34.1502645,0 44,9.8497355 44,22 C44,34.1502645 34.1502645,44 22,44 Z" id="Oval" fill="#FFFFFF" fill-rule="nonzero"></path>
                <g id="ic/camera/switch_camera" transform="translate(10.750000, 13.250000)">
                    <mask id="mask-2" fill="white">
                        <use xlink:href="#path-1"></use>
                    </mask>
                    <use id="small_switch_camera" fill="#FFFFFF" xlink:href="#path-1"></use>
                </g>
            </g>
        </g>
    </g>
</svg>